<?xml version="1.0" encoding="utf-8"?>
<!-- Generator: Adobe Illustrator 17.1.0, SVG Export Plug-In . SVG Version: 6.00 Build 0)  -->
<!DOCTYPE svg PUBLIC "-//W3C//DTD SVG 1.1//EN" "http://www.w3.org/Graphics/SVG/1.1/DTD/svg11.dtd">
<svg version="1.1" id="Layer_1" xmlns="http://www.w3.org/2000/svg" xmlns:xlink="http://www.w3.org/1999/xlink" x="0px" y="0px"
	 viewBox="0 0 403 219.915" enable-background="new 0 0 403 219.915" xml:space="preserve">
<path fill="#231F20" d="M385.252,61.373h-42.271C315.279,25.986,261.704,2,200.145,2C138.588,2,85.012,25.986,57.311,61.373H15.04
	c-6.512,0-11.792,5.28-11.792,11.792v71.763c0,6.513,5.28,11.792,11.792,11.792h42.271c27.701,35.389,81.277,59.374,142.834,59.374
	c61.559,0,115.134-23.985,142.836-59.374h42.271c6.512,0,11.792-5.279,11.792-11.792V73.165
	C397.044,66.653,391.764,61.373,385.252,61.373z"/>
<path fill="none" stroke="#FFC20E" stroke-width="1.9735" stroke-miterlimit="10" d="M380.337,66.286h-41.449
	C312.983,30.988,260.578,6.848,200.144,6.848c-60.434,0-112.838,24.14-138.742,59.438h-41.45c-6.512,0-11.792,5.28-11.792,11.792
	v61.936c0,6.513,5.28,11.792,11.792,11.792H61.4c25.905,35.299,78.309,59.439,138.743,59.439c60.434,0,112.84-24.14,138.744-59.439
	h41.448c6.512,0,11.792-5.279,11.792-11.792V78.078C392.129,71.566,386.849,66.286,380.337,66.286z"/>
<g>
	<path fill="#FFC20E" d="M49.211,136.785h-0.265c-0.181-0.624-0.468-1.116-0.862-1.476c-0.393-0.359-0.87-0.539-1.431-0.539
		c-0.276,0-0.528,0.056-0.756,0.167c-0.228,0.11-0.41,0.269-0.543,0.474c-0.133,0.206-0.2,0.442-0.2,0.709
		c0,0.154,0.026,0.305,0.078,0.454c0.052,0.15,0.178,0.333,0.376,0.55c0.2,0.218,0.503,0.457,0.91,0.719
		c0.456,0.285,0.734,0.466,0.834,0.543c0.57,0.357,1.035,0.689,1.397,0.996c0.362,0.308,0.637,0.641,0.827,0.998
		c0.19,0.357,0.285,0.762,0.285,1.214c0,0.416-0.081,0.795-0.241,1.136c-0.16,0.341-0.389,0.637-0.685,0.888
		c-0.295,0.251-0.649,0.446-1.057,0.583c-0.41,0.138-0.854,0.207-1.333,0.207c-0.493,0-1.062-0.092-1.709-0.278
		c-0.073-0.017-0.164-0.038-0.275-0.061c-0.11-0.022-0.209-0.033-0.295-0.033c-0.213,0-0.367,0.11-0.462,0.332h-0.237l0.061-2.821
		h0.264c0.086,0.533,0.271,0.979,0.553,1.336c0.283,0.357,0.603,0.616,0.96,0.776c0.358,0.16,0.708,0.241,1.052,0.241
		c0.502,0,0.916-0.14,1.245-0.42c0.328-0.28,0.491-0.622,0.491-1.025c0-0.271-0.069-0.507-0.206-0.708
		c-0.138-0.202-0.345-0.4-0.621-0.597c-0.275-0.197-0.796-0.539-1.56-1.028c-0.402-0.262-0.745-0.515-1.027-0.759
		c-0.283-0.245-0.504-0.479-0.661-0.702c-0.158-0.224-0.271-0.447-0.336-0.672c-0.066-0.224-0.099-0.463-0.099-0.716
		c0-0.487,0.126-0.969,0.376-1.444c0.251-0.475,0.607-0.863,1.069-1.163c0.461-0.3,0.987-0.451,1.58-0.451
		c0.276,0,0.541,0.027,0.794,0.082c0.068,0.01,0.158,0.029,0.272,0.058c0.113,0.029,0.208,0.054,0.285,0.071
		c0.199,0.036,0.348,0.054,0.448,0.054c0.154,0,0.261-0.024,0.322-0.074c0.061-0.05,0.119-0.122,0.173-0.218h0.211V136.785z"/>
	<path fill="#FFC20E" d="M51.511,134.309h6.979c0.321,0,0.587-0.04,0.8-0.123h0.197l0.054,2.347h-0.19
		c-0.099-0.687-0.268-1.125-0.505-1.313c-0.238-0.187-0.529-0.281-0.872-0.281h-1.865v7.875c0,0.262,0.029,0.485,0.088,0.669
		c0.059,0.182,0.178,0.332,0.359,0.447c0.181,0.115,0.445,0.173,0.794,0.173v0.197h-4.7v-0.197c0.52,0,0.857-0.117,1.011-0.353
		c0.153-0.234,0.231-0.547,0.231-0.936v-7.875h-1.865c-0.317,0-0.575,0.101-0.773,0.302c-0.199,0.202-0.393,0.631-0.583,1.292h-0.21
		l0.055-2.347h0.197C50.922,134.269,51.189,134.309,51.511,134.309z"/>
	<path fill="#FFC20E" d="M65.035,134.214l3.357,8.641c0.181,0.443,0.393,0.747,0.638,0.912c0.244,0.165,0.545,0.277,0.902,0.336
		v0.197h-4.735v-0.197c0.647-0.036,0.97-0.24,0.97-0.61c0-0.059-0.01-0.142-0.031-0.248c-0.02-0.106-0.047-0.219-0.081-0.34
		c-0.035-0.119-0.056-0.193-0.065-0.22l-0.834-2.124h-2.984l-0.712,2.042c-0.09,0.244-0.135,0.466-0.135,0.664
		c0,0.308,0.09,0.514,0.271,0.622c0.181,0.106,0.396,0.177,0.645,0.213v0.197h-2.998v-0.197c0.312-0.032,0.604-0.177,0.875-0.438
		c0.271-0.26,0.534-0.738,0.786-1.434l2.836-8.018H65.035z M62.402,139.898h2.489l-1.288-3.364L62.402,139.898z"/>
	<path fill="#FFC20E" d="M79.094,137.077h-0.197c-0.262-0.693-0.7-1.253-1.312-1.686c-0.613-0.431-1.328-0.648-2.147-0.648
		c-0.633,0-1.16,0.136-1.58,0.407c-0.42,0.272-0.747,0.632-0.98,1.082c-0.233,0.449-0.395,0.937-0.486,1.461
		c-0.09,0.525-0.135,1.078-0.135,1.661c0,1.447,0.288,2.558,0.865,3.334c0.577,0.775,1.353,1.163,2.33,1.163
		c0.701,0,1.139-0.104,1.316-0.311c0.177-0.209,0.265-0.516,0.265-0.923v-1.153c0-0.23-0.018-0.434-0.055-0.61
		c-0.037-0.177-0.13-0.338-0.281-0.485c-0.152-0.147-0.381-0.229-0.688-0.248v-0.21h4.164v0.21c-0.61,0.082-0.915,0.454-0.915,1.12
		v2.434c-1.067,0.489-2.274,0.733-3.622,0.733c-0.543,0-1.034-0.037-1.476-0.111c-0.441-0.075-0.833-0.178-1.177-0.313
		c-0.344-0.132-0.633-0.278-0.868-0.434c-0.235-0.155-0.456-0.331-0.664-0.526c-0.285-0.271-0.539-0.583-0.763-0.936
		c-0.225-0.352-0.407-0.763-0.55-1.231c-0.142-0.468-0.213-0.983-0.213-1.543c0-0.755,0.134-1.445,0.403-2.069
		c0.269-0.624,0.65-1.165,1.143-1.624c0.493-0.459,1.057-0.808,1.692-1.048c0.635-0.24,1.306-0.36,2.011-0.36
		c0.398,0,0.742,0.027,1.031,0.082c0.29,0.054,0.776,0.172,1.459,0.353c0.217,0.071,0.452,0.107,0.705,0.107
		c0.267,0,0.443-0.177,0.529-0.529h0.197V137.077z"/>
	<path fill="#FFC20E" d="M87.789,134.309l0.082,2.238h-0.197c-0.09-0.374-0.191-0.685-0.301-0.929
		c-0.111-0.244-0.269-0.431-0.472-0.56c-0.203-0.13-0.481-0.193-0.834-0.193h-2.014v4.197h1.607c0.479,0,0.828-0.106,1.048-0.319
		c0.219-0.212,0.347-0.526,0.383-0.942h0.197v2.931H87.09c-0.067-0.443-0.232-0.74-0.495-0.889c-0.262-0.15-0.574-0.225-0.936-0.225
		h-1.607v2.876c0,0.832,0.429,1.248,1.289,1.248h0.61c0.412,0,0.747-0.055,1.007-0.163c0.26-0.109,0.475-0.296,0.645-0.56
		c0.17-0.264,0.322-0.638,0.458-1.122h0.197l-0.149,2.401h-7.529v-0.197c0.525,0,0.864-0.119,1.017-0.356
		c0.154-0.237,0.231-0.548,0.231-0.933v-6.999c0-0.366-0.071-0.677-0.211-0.93c-0.14-0.252-0.464-0.379-0.969-0.379h-0.068v-0.197
		H87.789z"/>
	<path fill="#FFC20E" d="M98.064,137.741h-0.237c-0.073-0.484-0.212-0.914-0.417-1.288c-0.205-0.376-0.454-0.687-0.746-0.933
		c-0.292-0.247-0.62-0.434-0.984-0.56c-0.365-0.127-0.749-0.19-1.156-0.19c-0.543,0-1.021,0.115-1.435,0.346
		c-0.414,0.231-0.731,0.517-0.953,0.861c-0.267,0.435-0.455,0.915-0.563,1.441c-0.108,0.528-0.163,1.089-0.163,1.686
		c0,1.085,0.19,1.953,0.57,2.604c0.38,0.652,0.838,1.104,1.373,1.36c0.536,0.255,1.064,0.384,1.584,0.384
		c1.257,0,2.346-0.615,3.269-1.845v0.915c-0.303,0.352-0.629,0.665-0.977,0.936c-0.348,0.272-0.782,0.498-1.302,0.679
		c-0.52,0.18-1.128,0.271-1.825,0.271c-0.822,0-1.557-0.139-2.2-0.417c-0.645-0.278-1.179-0.652-1.604-1.123
		c-0.425-0.47-0.746-1.009-0.963-1.614c-0.217-0.606-0.326-1.23-0.326-1.873c0-0.551,0.07-1.064,0.211-1.539
		c0.14-0.474,0.329-0.896,0.569-1.265c0.24-0.368,0.525-0.711,0.855-1.027c0.565-0.516,1.152-0.867,1.763-1.056
		c0.611-0.187,1.269-0.281,1.974-0.281c0.697,0,1.456,0.115,2.279,0.346c0.29,0.067,0.502,0.102,0.637,0.102
		c0.249,0,0.439-0.163,0.57-0.489h0.197V137.741z"/>
	<path fill="#FFC20E" d="M98.986,139.274c0-0.679,0.117-1.327,0.349-1.947c0.233-0.619,0.576-1.163,1.028-1.63
		c0.452-0.468,1.001-0.833,1.645-1.092c0.645-0.261,1.373-0.391,2.187-0.391c0.823,0,1.557,0.132,2.201,0.396
		c0.644,0.265,1.192,0.632,1.641,1.103c0.45,0.47,0.791,1.014,1.021,1.631c0.231,0.617,0.346,1.273,0.346,1.97
		c0,0.692-0.112,1.343-0.336,1.954c-0.224,0.61-0.553,1.151-0.987,1.621c-0.434,0.47-0.98,0.842-1.638,1.112
		c-0.657,0.271-1.402,0.407-2.234,0.407c-0.895,0-1.676-0.153-2.343-0.458c-0.667-0.305-1.212-0.709-1.635-1.21
		c-0.422-0.503-0.736-1.057-0.939-1.662C99.088,140.472,98.986,139.871,98.986,139.274z M101.361,139.146
		c0,0.678,0.051,1.345,0.153,2.004c0.102,0.658,0.366,1.272,0.791,1.844c0.424,0.572,1.064,0.858,1.919,0.858
		c1.198,0,1.965-0.482,2.302-1.447c0.337-0.965,0.506-1.95,0.506-2.954c0-0.783-0.068-1.515-0.203-2.198
		c-0.136-0.683-0.413-1.268-0.831-1.754c-0.418-0.486-1.009-0.729-1.773-0.729c-0.86,0-1.5,0.277-1.923,0.831
		c-0.423,0.555-0.685,1.144-0.787,1.768C101.411,137.992,101.361,138.584,101.361,139.146z"/>
	<path fill="#FFC20E" d="M115.176,134.214l3.358,8.641c0.18,0.443,0.393,0.747,0.637,0.912c0.245,0.165,0.545,0.277,0.902,0.336
		v0.197h-4.734v-0.197c0.647-0.036,0.97-0.24,0.97-0.61c0-0.059-0.011-0.142-0.031-0.248c-0.02-0.106-0.048-0.219-0.082-0.34
		c-0.034-0.119-0.056-0.193-0.064-0.22l-0.834-2.124h-2.984l-0.712,2.042c-0.091,0.244-0.136,0.466-0.136,0.664
		c0,0.308,0.09,0.514,0.272,0.622c0.18,0.106,0.395,0.177,0.644,0.213v0.197h-2.998v-0.197c0.312-0.032,0.604-0.177,0.875-0.438
		c0.272-0.26,0.534-0.738,0.787-1.434l2.835-8.018H115.176z M112.545,139.898h2.489l-1.289-3.364L112.545,139.898z"/>
	<path fill="#FFC20E" d="M129.108,137.741h-0.237c-0.073-0.484-0.212-0.914-0.417-1.288c-0.205-0.376-0.454-0.687-0.746-0.933
		c-0.292-0.247-0.62-0.434-0.984-0.56c-0.365-0.127-0.749-0.19-1.156-0.19c-0.543,0-1.021,0.115-1.435,0.346
		c-0.414,0.231-0.731,0.517-0.953,0.861c-0.267,0.435-0.455,0.915-0.563,1.441c-0.108,0.528-0.163,1.089-0.163,1.686
		c0,1.085,0.19,1.953,0.57,2.604c0.38,0.652,0.838,1.104,1.373,1.36c0.536,0.255,1.064,0.384,1.584,0.384
		c1.257,0,2.346-0.615,3.269-1.845v0.915c-0.303,0.352-0.628,0.665-0.977,0.936c-0.348,0.272-0.782,0.498-1.302,0.679
		c-0.52,0.18-1.128,0.271-1.825,0.271c-0.822,0-1.557-0.139-2.2-0.417c-0.645-0.278-1.179-0.652-1.604-1.123
		c-0.425-0.47-0.746-1.009-0.963-1.614c-0.217-0.606-0.326-1.23-0.326-1.873c0-0.551,0.07-1.064,0.211-1.539
		c0.14-0.474,0.329-0.896,0.569-1.265c0.24-0.368,0.525-0.711,0.855-1.027c0.565-0.516,1.152-0.867,1.763-1.056
		c0.611-0.187,1.269-0.281,1.974-0.281c0.697,0,1.456,0.115,2.279,0.346c0.29,0.067,0.502,0.102,0.637,0.102
		c0.249,0,0.438-0.163,0.57-0.489h0.197V137.741z"/>
	<path fill="#FFC20E" d="M133.171,138.786h4.72v-2.971c0-0.362-0.068-0.671-0.203-0.926c-0.135-0.255-0.457-0.383-0.963-0.383
		h-0.067v-0.197h4.693v0.197c-0.525,0-0.862,0.12-1.01,0.36c-0.15,0.24-0.225,0.556-0.225,0.949v6.999
		c0,0.218,0.021,0.416,0.061,0.594c0.04,0.178,0.147,0.339,0.319,0.482c0.172,0.142,0.434,0.213,0.787,0.213h0.068v0.197h-4.693
		v-0.197c0.529,0,0.867-0.117,1.013-0.353c0.147-0.234,0.221-0.547,0.221-0.936v-3.363h-4.72v3.363c0,0.222,0.02,0.421,0.06,0.6
		c0.041,0.179,0.147,0.339,0.32,0.479c0.172,0.14,0.434,0.21,0.786,0.21h0.068v0.197h-4.693v-0.197c0.525,0,0.862-0.117,1.01-0.353
		c0.15-0.234,0.224-0.547,0.224-0.936v-6.999c0-0.366-0.068-0.677-0.206-0.93c-0.138-0.252-0.458-0.379-0.96-0.379h-0.068v-0.197
		h4.693v0.197c-0.515,0-0.85,0.118-1.004,0.356c-0.154,0.238-0.23,0.555-0.23,0.953V138.786z"/>
	<path fill="#FFC20E" d="M152.331,136.785h-0.265c-0.181-0.624-0.468-1.116-0.862-1.476c-0.393-0.359-0.87-0.539-1.431-0.539
		c-0.276,0-0.528,0.056-0.756,0.167c-0.228,0.11-0.41,0.269-0.543,0.474c-0.133,0.206-0.2,0.442-0.2,0.709
		c0,0.154,0.026,0.305,0.078,0.454c0.052,0.15,0.178,0.333,0.376,0.55c0.2,0.218,0.503,0.457,0.91,0.719
		c0.456,0.285,0.734,0.466,0.834,0.543c0.57,0.357,1.035,0.689,1.397,0.996c0.362,0.308,0.637,0.641,0.827,0.998
		c0.19,0.357,0.285,0.762,0.285,1.214c0,0.416-0.081,0.795-0.241,1.136c-0.16,0.341-0.389,0.637-0.685,0.888
		c-0.295,0.251-0.649,0.446-1.057,0.583c-0.41,0.138-0.854,0.207-1.333,0.207c-0.493,0-1.062-0.092-1.709-0.278
		c-0.073-0.017-0.164-0.038-0.275-0.061c-0.11-0.022-0.209-0.033-0.295-0.033c-0.213,0-0.367,0.11-0.462,0.332h-0.237l0.061-2.821
		h0.264c0.086,0.533,0.271,0.979,0.553,1.336c0.283,0.357,0.603,0.616,0.96,0.776c0.358,0.16,0.708,0.241,1.052,0.241
		c0.502,0,0.916-0.14,1.245-0.42c0.328-0.28,0.491-0.622,0.491-1.025c0-0.271-0.069-0.507-0.206-0.708
		c-0.138-0.202-0.345-0.4-0.621-0.597c-0.275-0.197-0.796-0.539-1.56-1.028c-0.402-0.262-0.745-0.515-1.027-0.759
		c-0.283-0.245-0.504-0.479-0.661-0.702c-0.158-0.224-0.271-0.447-0.336-0.672c-0.066-0.224-0.099-0.463-0.099-0.716
		c0-0.487,0.126-0.969,0.376-1.444c0.251-0.475,0.607-0.863,1.069-1.163c0.461-0.3,0.987-0.451,1.58-0.451
		c0.276,0,0.541,0.027,0.794,0.082c0.068,0.01,0.158,0.029,0.272,0.058c0.113,0.029,0.208,0.054,0.285,0.071
		c0.199,0.036,0.348,0.054,0.448,0.054c0.154,0,0.261-0.024,0.322-0.074c0.061-0.05,0.119-0.122,0.173-0.218h0.211V136.785z"/>
	<path fill="#FFC20E" d="M154.631,134.309h6.979c0.321,0,0.587-0.04,0.8-0.123h0.197l0.054,2.347h-0.19
		c-0.099-0.687-0.268-1.125-0.505-1.313c-0.238-0.187-0.529-0.281-0.872-0.281h-1.864v7.875c0,0.262,0.029,0.485,0.088,0.669
		c0.059,0.182,0.178,0.332,0.359,0.447c0.181,0.115,0.445,0.173,0.794,0.173v0.197h-4.7v-0.197c0.52,0,0.857-0.117,1.011-0.353
		c0.153-0.234,0.231-0.547,0.231-0.936v-7.875h-1.865c-0.317,0-0.575,0.101-0.773,0.302c-0.199,0.202-0.393,0.631-0.583,1.292h-0.21
		l0.055-2.347h0.197C154.042,134.269,154.309,134.309,154.631,134.309z"/>
	<path fill="#FFC20E" d="M163.135,139.274c0-0.679,0.117-1.327,0.349-1.947c0.233-0.619,0.576-1.163,1.028-1.63
		c0.452-0.468,1.001-0.833,1.645-1.092c0.645-0.261,1.373-0.391,2.187-0.391c0.823,0,1.557,0.132,2.201,0.396
		c0.644,0.265,1.192,0.632,1.641,1.103c0.45,0.47,0.791,1.014,1.021,1.631c0.231,0.617,0.346,1.273,0.346,1.97
		c0,0.692-0.112,1.343-0.336,1.954c-0.224,0.61-0.553,1.151-0.987,1.621c-0.434,0.47-0.98,0.842-1.638,1.112
		c-0.657,0.271-1.402,0.407-2.234,0.407c-0.895,0-1.676-0.153-2.343-0.458c-0.667-0.305-1.212-0.709-1.635-1.21
		c-0.422-0.503-0.736-1.057-0.939-1.662C163.236,140.472,163.135,139.871,163.135,139.274z M165.509,139.146
		c0,0.678,0.051,1.345,0.153,2.004c0.102,0.658,0.366,1.272,0.791,1.844c0.424,0.572,1.064,0.858,1.919,0.858
		c1.198,0,1.965-0.482,2.302-1.447c0.337-0.965,0.506-1.95,0.506-2.954c0-0.783-0.068-1.515-0.203-2.198
		c-0.136-0.683-0.413-1.268-0.831-1.754c-0.418-0.486-1.01-0.729-1.773-0.729c-0.86,0-1.5,0.277-1.923,0.831
		c-0.423,0.555-0.685,1.144-0.787,1.768C165.559,137.992,165.509,138.584,165.509,139.146z"/>
	<path fill="#FFC20E" d="M177.635,139.77v3.045c0,0.367,0.061,0.644,0.183,0.834c0.123,0.19,0.279,0.314,0.472,0.37
		c0.192,0.056,0.415,0.084,0.668,0.084v0.197h-4.782v-0.197c0.32,0,0.608-0.067,0.861-0.2c0.253-0.134,0.38-0.442,0.38-0.927v-7.161
		c0-0.479-0.101-0.817-0.301-1.014c-0.202-0.196-0.514-0.295-0.939-0.295v-0.197h5.297c0.732,0,1.332,0.139,1.797,0.417
		c0.465,0.278,0.796,0.624,0.99,1.034c0.194,0.413,0.292,0.837,0.292,1.275c0,0.515-0.107,0.949-0.322,1.298
		c-0.215,0.351-0.463,0.626-0.743,0.825c-0.325,0.234-0.687,0.41-1.085,0.526c-0.397,0.115-0.932,0.173-1.601,0.173
		C178.504,139.858,178.115,139.828,177.635,139.77z M177.635,134.926v4.3c0.226,0.05,0.446,0.075,0.658,0.075
		c0.497,0,0.901-0.121,1.211-0.363c0.309-0.242,0.525-0.541,0.648-0.898c0.122-0.358,0.183-0.715,0.183-1.073
		c0-0.374-0.068-0.72-0.203-1.034c-0.136-0.314-0.359-0.57-0.669-0.77c-0.309-0.199-0.711-0.298-1.203-0.298
		C178.079,134.866,177.87,134.885,177.635,134.926z"/>
	<path fill="#FFC20E" d="M197.738,137.869v0.19c-0.253,0.028-0.472,0.123-0.657,0.286c-0.185,0.162-0.341,0.349-0.464,0.558
		c-0.125,0.211-0.366,0.671-0.723,1.381c-0.1,0.199-0.198,0.388-0.296,0.566c-0.096,0.178-0.184,0.343-0.261,0.492l0.583,0.637
		c0.245,0.262,0.47,0.482,0.678,0.658c0.208,0.176,0.429,0.321,0.661,0.434c0.233,0.113,0.463,0.169,0.689,0.169
		c0.199,0,0.367-0.029,0.501-0.088c0.136-0.058,0.288-0.144,0.455-0.257l0.109,0.081c-0.223,0.435-0.531,0.782-0.927,1.042
		c-0.395,0.259-0.869,0.39-1.42,0.39c-0.439,0-0.816-0.058-1.13-0.173c-0.314-0.115-0.575-0.26-0.784-0.434
		c-0.207-0.175-0.432-0.397-0.671-0.668c-0.348,0.321-0.642,0.564-0.882,0.731c-0.24,0.168-0.524,0.3-0.854,0.397
		c-0.33,0.098-0.733,0.146-1.207,0.146c-0.643,0-1.169-0.098-1.581-0.296c-0.411-0.196-0.724-0.435-0.935-0.715
		c-0.213-0.28-0.358-0.561-0.435-0.844c-0.078-0.283-0.115-0.531-0.115-0.743c0-0.75,0.214-1.341,0.64-1.77
		c0.428-0.43,0.94-0.812,1.537-1.146c-0.34-0.32-0.635-0.686-0.886-1.096c-0.25-0.409-0.376-0.821-0.376-1.238
		c0-0.289,0.083-0.613,0.25-0.973c0.167-0.359,0.487-0.677,0.96-0.956c0.473-0.278,1.13-0.418,1.971-0.418
		c0.669,0,1.198,0.108,1.583,0.325c0.387,0.217,0.645,0.465,0.777,0.743c0.13,0.278,0.196,0.533,0.196,0.764
		c0,0.457-0.18,0.868-0.542,1.237c-0.362,0.369-0.882,0.716-1.559,1.041c0.274,0.272,0.652,0.673,1.128,1.203
		c0.477,0.532,0.866,0.979,1.163,1.34c0.177-0.344,0.309-0.643,0.397-0.898c0.088-0.255,0.132-0.53,0.132-0.823
		c0-0.336-0.085-0.597-0.255-0.787c-0.169-0.19-0.376-0.29-0.62-0.299v-0.19H197.738z M190.752,139.464
		c-0.528,0.37-0.793,0.806-0.793,1.309c0,0.33,0.094,0.694,0.284,1.092c0.19,0.397,0.457,0.737,0.8,1.017
		c0.344,0.28,0.72,0.42,1.127,0.42c0.524,0,1.015-0.228,1.472-0.685c-0.326-0.43-0.781-0.959-1.364-1.587
		C191.696,140.403,191.187,139.88,190.752,139.464z M192.117,137.816c0.541-0.303,0.814-0.687,0.814-1.153
		c0-0.127-0.029-0.334-0.085-0.624c-0.057-0.29-0.178-0.566-0.363-0.831c-0.185-0.264-0.452-0.396-0.8-0.396
		c-0.249,0-0.468,0.085-0.657,0.258c-0.19,0.171-0.286,0.395-0.286,0.671c0,0.285,0.102,0.567,0.302,0.847
		C191.242,136.869,191.6,137.278,192.117,137.816z"/>
	<path fill="#FFC20E" d="M211.175,134.309l0.156,1.77h-0.197c-0.1-0.294-0.196-0.517-0.289-0.671
		c-0.092-0.154-0.248-0.283-0.464-0.387c-0.217-0.104-0.522-0.155-0.915-0.155h-1.953v4.09h1.702c0.357,0,0.683-0.092,0.98-0.275
		c0.295-0.183,0.455-0.514,0.478-0.993h0.21v2.888h-0.21c-0.023-0.298-0.135-0.551-0.339-0.759c-0.204-0.208-0.52-0.312-0.95-0.312
		h-1.871v3.31c0,0.38,0.087,0.69,0.264,0.93c0.177,0.239,0.495,0.359,0.957,0.359h0.067v0.197h-4.734v-0.197
		c0.511,0,0.842-0.115,0.993-0.345c0.152-0.23,0.227-0.545,0.227-0.943v-7.027c0-0.352-0.066-0.654-0.201-0.905
		c-0.132-0.25-0.451-0.376-0.952-0.376h-0.068v-0.197H211.175z"/>
	<path fill="#FFC20E" d="M216.513,134.214l3.357,8.641c0.181,0.443,0.393,0.747,0.638,0.912c0.244,0.165,0.544,0.277,0.902,0.336
		v0.197h-4.735v-0.197c0.647-0.036,0.97-0.24,0.97-0.61c0-0.059-0.011-0.142-0.031-0.248c-0.02-0.106-0.047-0.219-0.082-0.34
		c-0.034-0.119-0.055-0.193-0.064-0.22l-0.834-2.124h-2.984l-0.712,2.042c-0.091,0.244-0.136,0.466-0.136,0.664
		c0,0.308,0.091,0.514,0.272,0.622c0.181,0.106,0.395,0.177,0.645,0.213v0.197h-2.998v-0.197c0.312-0.032,0.604-0.177,0.874-0.438
		c0.271-0.26,0.533-0.738,0.787-1.434l2.836-8.018H216.513z M213.881,139.898h2.489l-1.289-3.364L213.881,139.898z"/>
	<path fill="#FFC20E" d="M225.553,139.62h-0.319v3.195c0,0.38,0.057,0.663,0.169,0.851c0.113,0.188,0.251,0.307,0.415,0.359
		c0.162,0.053,0.379,0.084,0.651,0.092v0.183h-4.693v-0.197c0.525,0,0.862-0.117,1.01-0.353c0.15-0.234,0.224-0.547,0.224-0.936
		v-6.999c0-0.479-0.097-0.817-0.291-1.014c-0.195-0.196-0.51-0.295-0.943-0.295v-0.197h5.182c0.682,0,1.282,0.106,1.797,0.319
		c0.515,0.213,0.909,0.513,1.18,0.902c0.272,0.39,0.407,0.835,0.407,1.336c0,0.407-0.086,0.77-0.258,1.086
		c-0.172,0.317-0.403,0.576-0.695,0.779c-0.292,0.204-0.616,0.36-0.973,0.468c0.465,0.294,0.917,0.814,1.356,1.56l1.194,2.028
		c0.203,0.348,0.391,0.618,0.563,0.811c0.172,0.192,0.323,0.319,0.454,0.38c0.131,0.06,0.273,0.102,0.428,0.125v0.197h-3.222
		c-0.312-0.565-0.552-1.015-0.719-1.35c-0.533-1.044-0.922-1.77-1.167-2.176c-0.244-0.407-0.496-0.701-0.756-0.882
		C226.287,139.71,225.956,139.62,225.553,139.62z M225.777,134.866h-0.542v4.197h0.454c0.778,0,1.364-0.186,1.757-0.558
		c0.393-0.374,0.59-0.911,0.59-1.611c0-0.435-0.085-0.801-0.254-1.103c-0.17-0.3-0.423-0.53-0.76-0.688
		C226.685,134.945,226.27,134.866,225.777,134.866z"/>
	<path fill="#FFC20E" d="M245.486,134.309v0.197c-0.262,0.018-0.478,0.051-0.648,0.099c-0.169,0.047-0.311,0.155-0.423,0.324
		c-0.113,0.171-0.155,0.422-0.123,0.756l0.55,6.709c0.04,0.47,0.107,0.817,0.201,1.041c0.092,0.224,0.207,0.374,0.346,0.451
		c0.138,0.077,0.356,0.15,0.654,0.217v0.197h-4.585v-0.197c0.385-0.01,0.686-0.111,0.906-0.305c0.219-0.194,0.306-0.579,0.261-1.153
		l-0.488-6.362h-0.027l-3.263,8.018h-0.237l-3.364-7.753h-0.027l-0.441,5.569c-0.045,0.548-0.007,0.966,0.115,1.258
		c0.123,0.292,0.284,0.482,0.486,0.57c0.201,0.088,0.435,0.142,0.702,0.159v0.197h-3.391v-0.197c0.43-0.027,0.754-0.2,0.973-0.515
		c0.22-0.317,0.368-0.844,0.444-1.58l0.672-6.322c-0.42-0.674-0.995-1.067-1.723-1.179v-0.197h3.608l2.889,6.572l2.679-6.572
		H245.486z"/>
	<path fill="#FFC20E" d="M254.52,138.786h4.721v-2.971c0-0.362-0.068-0.671-0.203-0.926c-0.136-0.255-0.457-0.383-0.963-0.383
		h-0.068v-0.197h4.693v0.197c-0.524,0-0.861,0.12-1.01,0.36c-0.149,0.24-0.224,0.556-0.224,0.949v6.999
		c0,0.218,0.02,0.416,0.061,0.594c0.04,0.178,0.147,0.339,0.319,0.482c0.172,0.142,0.434,0.213,0.787,0.213h0.067v0.197h-4.693
		v-0.197c0.53,0,0.867-0.117,1.014-0.353c0.147-0.234,0.221-0.547,0.221-0.936v-3.363h-4.721v3.363c0,0.222,0.021,0.421,0.061,0.6
		c0.041,0.179,0.147,0.339,0.319,0.479c0.172,0.14,0.435,0.21,0.787,0.21h0.068v0.197h-4.693v-0.197
		c0.524,0,0.861-0.117,1.011-0.353c0.149-0.234,0.224-0.547,0.224-0.936v-6.999c0-0.366-0.069-0.677-0.206-0.93
		c-0.138-0.252-0.458-0.379-0.96-0.379h-0.068v-0.197h4.693v0.197c-0.515,0-0.85,0.118-1.004,0.356
		c-0.153,0.238-0.231,0.555-0.231,0.953V138.786z"/>
	<path fill="#FFC20E" d="M263.08,134.492v-0.182h4.693v0.197c-0.52,0-0.856,0.118-1.008,0.356c-0.152,0.238-0.227,0.551-0.227,0.94
		v7.013c0,0.222,0.021,0.421,0.061,0.597c0.041,0.177,0.148,0.336,0.323,0.479c0.174,0.142,0.439,0.213,0.796,0.213h0.055v0.197
		h-4.693v-0.197c0.515,0,0.85-0.117,1.004-0.353c0.154-0.234,0.23-0.547,0.23-0.936v-7.013c0-0.462-0.101-0.795-0.301-1.001
		C263.811,134.595,263.5,134.492,263.08,134.492z"/>
	<path fill="#FFC20E" d="M274.041,136.785h-0.265c-0.18-0.624-0.468-1.116-0.861-1.476c-0.393-0.359-0.871-0.539-1.432-0.539
		c-0.275,0-0.528,0.056-0.756,0.167c-0.228,0.11-0.409,0.269-0.542,0.474c-0.133,0.206-0.201,0.442-0.201,0.709
		c0,0.154,0.026,0.305,0.078,0.454c0.053,0.15,0.177,0.333,0.377,0.55c0.199,0.218,0.502,0.457,0.909,0.719
		c0.457,0.285,0.735,0.466,0.834,0.543c0.57,0.357,1.035,0.689,1.397,0.996c0.362,0.308,0.638,0.641,0.827,0.998
		c0.19,0.357,0.285,0.762,0.285,1.214c0,0.416-0.08,0.795-0.241,1.136c-0.16,0.341-0.389,0.637-0.684,0.888
		c-0.297,0.251-0.65,0.446-1.058,0.583c-0.41,0.138-0.853,0.207-1.333,0.207c-0.493,0-1.062-0.092-1.709-0.278
		c-0.072-0.017-0.164-0.038-0.274-0.061c-0.111-0.022-0.209-0.033-0.296-0.033c-0.212,0-0.366,0.11-0.461,0.332h-0.238l0.061-2.821
		h0.265c0.085,0.533,0.27,0.979,0.553,1.336c0.282,0.357,0.602,0.616,0.96,0.776c0.357,0.16,0.707,0.241,1.051,0.241
		c0.502,0,0.917-0.14,1.245-0.42c0.328-0.28,0.492-0.622,0.492-1.025c0-0.271-0.069-0.507-0.207-0.708s-0.345-0.4-0.621-0.597
		c-0.275-0.197-0.796-0.539-1.559-1.028c-0.403-0.262-0.746-0.515-1.028-0.759c-0.283-0.245-0.503-0.479-0.661-0.702
		c-0.158-0.224-0.271-0.447-0.336-0.672c-0.065-0.224-0.099-0.463-0.099-0.716c0-0.487,0.126-0.969,0.377-1.444
		c0.25-0.475,0.606-0.863,1.068-1.163c0.462-0.3,0.987-0.451,1.58-0.451c0.275,0,0.54,0.027,0.794,0.082
		c0.067,0.01,0.158,0.029,0.271,0.058c0.113,0.029,0.208,0.054,0.285,0.071c0.2,0.036,0.348,0.054,0.448,0.054
		c0.154,0,0.261-0.024,0.322-0.074c0.061-0.05,0.119-0.122,0.174-0.218h0.21V136.785z"/>
	<path fill="#FFC20E" d="M276.34,134.309h6.979c0.321,0,0.587-0.04,0.8-0.123h0.197l0.054,2.347h-0.19
		c-0.099-0.687-0.268-1.125-0.505-1.313c-0.237-0.187-0.528-0.281-0.871-0.281h-1.866v7.875c0,0.262,0.03,0.485,0.088,0.669
		c0.058,0.182,0.178,0.332,0.359,0.447c0.181,0.115,0.446,0.173,0.794,0.173v0.197h-4.7v-0.197c0.52,0,0.857-0.117,1.01-0.353
		c0.155-0.234,0.231-0.547,0.231-0.936v-7.875h-1.865c-0.317,0-0.574,0.101-0.774,0.302c-0.199,0.202-0.393,0.631-0.583,1.292h-0.21
		l0.055-2.347h0.197C275.752,134.269,276.018,134.309,276.34,134.309z"/>
	<path fill="#FFC20E" d="M284.846,139.274c0-0.679,0.116-1.327,0.349-1.947c0.233-0.619,0.576-1.163,1.028-1.63
		c0.452-0.468,1-0.833,1.645-1.092c0.644-0.261,1.373-0.391,2.187-0.391c0.823,0,1.556,0.132,2.201,0.396
		c0.644,0.265,1.191,0.632,1.641,1.103c0.45,0.47,0.791,1.014,1.021,1.631c0.23,0.617,0.345,1.273,0.345,1.97
		c0,0.692-0.111,1.343-0.335,1.954c-0.225,0.61-0.553,1.151-0.987,1.621c-0.434,0.47-0.98,0.842-1.638,1.112
		c-0.657,0.271-1.403,0.407-2.235,0.407c-0.895,0-1.676-0.153-2.343-0.458c-0.667-0.305-1.211-0.709-1.634-1.21
		c-0.423-0.503-0.736-1.057-0.94-1.662C284.948,140.472,284.846,139.871,284.846,139.274z M287.22,139.146
		c0,0.678,0.051,1.345,0.153,2.004c0.102,0.658,0.365,1.272,0.79,1.844c0.425,0.572,1.065,0.858,1.919,0.858
		c1.199,0,1.966-0.482,2.303-1.447c0.337-0.965,0.506-1.95,0.506-2.954c0-0.783-0.068-1.515-0.203-2.198
		c-0.136-0.683-0.413-1.268-0.831-1.754c-0.418-0.486-1.01-0.729-1.774-0.729c-0.859,0-1.5,0.277-1.922,0.831
		c-0.423,0.555-0.685,1.144-0.787,1.768S287.22,138.584,287.22,139.146z"/>
	<path fill="#FFC20E" d="M299.768,139.62h-0.319v3.195c0,0.38,0.057,0.663,0.169,0.851c0.113,0.188,0.251,0.307,0.415,0.359
		c0.162,0.053,0.379,0.084,0.651,0.092v0.183h-4.693v-0.197c0.525,0,0.862-0.117,1.01-0.353c0.15-0.234,0.224-0.547,0.224-0.936
		v-6.999c0-0.479-0.097-0.817-0.291-1.014c-0.195-0.196-0.51-0.295-0.943-0.295v-0.197h5.182c0.682,0,1.282,0.106,1.797,0.319
		c0.515,0.213,0.909,0.513,1.18,0.902c0.272,0.39,0.407,0.835,0.407,1.336c0,0.407-0.086,0.77-0.258,1.086
		c-0.172,0.317-0.403,0.576-0.695,0.779c-0.292,0.204-0.616,0.36-0.973,0.468c0.465,0.294,0.917,0.814,1.356,1.56l1.194,2.028
		c0.204,0.348,0.392,0.618,0.563,0.811c0.172,0.192,0.323,0.319,0.454,0.38c0.131,0.06,0.273,0.102,0.428,0.125v0.197h-3.222
		c-0.312-0.565-0.552-1.015-0.719-1.35c-0.534-1.044-0.922-1.77-1.167-2.176c-0.244-0.407-0.496-0.701-0.756-0.882
		C300.501,139.71,300.17,139.62,299.768,139.62z M299.991,134.866h-0.542v4.197h0.454c0.778,0,1.364-0.186,1.757-0.558
		c0.393-0.374,0.59-0.911,0.59-1.611c0-0.435-0.085-0.801-0.254-1.103c-0.17-0.3-0.423-0.53-0.76-0.688
		C300.899,134.945,300.485,134.866,299.991,134.866z"/>
	<path fill="#FFC20E" d="M306.964,134.492v-0.182h4.693v0.197c-0.52,0-0.856,0.118-1.008,0.356c-0.152,0.238-0.227,0.551-0.227,0.94
		v7.013c0,0.222,0.021,0.421,0.061,0.597c0.041,0.177,0.148,0.336,0.322,0.479c0.174,0.142,0.44,0.213,0.797,0.213h0.055v0.197
		h-4.693v-0.197c0.515,0,0.85-0.117,1.004-0.353c0.154-0.234,0.23-0.547,0.23-0.936v-7.013c0-0.462-0.101-0.795-0.301-1.001
		C307.695,134.595,307.384,134.492,306.964,134.492z"/>
	<path fill="#FFC20E" d="M321.424,137.741h-0.237c-0.073-0.484-0.212-0.914-0.417-1.288c-0.206-0.376-0.455-0.687-0.747-0.933
		c-0.292-0.247-0.619-0.434-0.984-0.56c-0.364-0.127-0.749-0.19-1.156-0.19c-0.542,0-1.02,0.115-1.434,0.346
		c-0.415,0.231-0.732,0.517-0.954,0.861c-0.267,0.435-0.454,0.915-0.562,1.441c-0.108,0.528-0.163,1.089-0.163,1.686
		c0,1.085,0.19,1.953,0.57,2.604c0.38,0.652,0.838,1.104,1.373,1.36c0.536,0.255,1.064,0.384,1.584,0.384
		c1.256,0,2.346-0.615,3.268-1.845v0.915c-0.302,0.352-0.629,0.665-0.976,0.936c-0.348,0.272-0.783,0.498-1.303,0.679
		c-0.519,0.18-1.128,0.271-1.824,0.271c-0.822,0-1.556-0.139-2.2-0.417c-0.645-0.278-1.179-0.652-1.604-1.123
		s-0.746-1.009-0.963-1.614c-0.217-0.606-0.325-1.23-0.325-1.873c0-0.551,0.07-1.064,0.21-1.539c0.14-0.474,0.33-0.896,0.57-1.265
		c0.24-0.368,0.525-0.711,0.855-1.027c0.565-0.516,1.153-0.867,1.763-1.056c0.61-0.187,1.269-0.281,1.974-0.281
		c0.697,0,1.456,0.115,2.279,0.346c0.289,0.067,0.502,0.102,0.637,0.102c0.249,0,0.439-0.163,0.57-0.489h0.197V137.741z"/>
	<path fill="#FFC20E" d="M332.629,136.785h-0.265c-0.18-0.624-0.468-1.116-0.861-1.476c-0.393-0.359-0.871-0.539-1.432-0.539
		c-0.275,0-0.528,0.056-0.756,0.167c-0.228,0.11-0.409,0.269-0.542,0.474c-0.133,0.206-0.201,0.442-0.201,0.709
		c0,0.154,0.026,0.305,0.078,0.454c0.053,0.15,0.178,0.333,0.377,0.55c0.199,0.218,0.502,0.457,0.909,0.719
		c0.457,0.285,0.735,0.466,0.834,0.543c0.57,0.357,1.035,0.689,1.397,0.996c0.362,0.308,0.638,0.641,0.827,0.998
		c0.19,0.357,0.285,0.762,0.285,1.214c0,0.416-0.08,0.795-0.241,1.136c-0.16,0.341-0.389,0.637-0.684,0.888
		c-0.296,0.251-0.65,0.446-1.058,0.583c-0.41,0.138-0.853,0.207-1.333,0.207c-0.493,0-1.062-0.092-1.709-0.278
		c-0.072-0.017-0.164-0.038-0.274-0.061c-0.111-0.022-0.209-0.033-0.296-0.033c-0.212,0-0.366,0.11-0.461,0.332h-0.238l0.061-2.821
		h0.265c0.085,0.533,0.27,0.979,0.553,1.336c0.282,0.357,0.602,0.616,0.96,0.776c0.357,0.16,0.707,0.241,1.051,0.241
		c0.502,0,0.917-0.14,1.245-0.42c0.328-0.28,0.492-0.622,0.492-1.025c0-0.271-0.069-0.507-0.207-0.708
		c-0.138-0.202-0.344-0.4-0.621-0.597c-0.275-0.197-0.796-0.539-1.559-1.028c-0.403-0.262-0.746-0.515-1.028-0.759
		c-0.283-0.245-0.503-0.479-0.661-0.702c-0.158-0.224-0.271-0.447-0.336-0.672c-0.065-0.224-0.099-0.463-0.099-0.716
		c0-0.487,0.126-0.969,0.377-1.444c0.25-0.475,0.606-0.863,1.068-1.163c0.462-0.3,0.987-0.451,1.58-0.451
		c0.275,0,0.54,0.027,0.794,0.082c0.067,0.01,0.158,0.029,0.271,0.058c0.113,0.029,0.208,0.054,0.285,0.071
		c0.2,0.036,0.348,0.054,0.448,0.054c0.154,0,0.261-0.024,0.321-0.074c0.061-0.05,0.119-0.122,0.174-0.218h0.21V136.785z"/>
	<path fill="#FFC20E" d="M333.823,134.492v-0.182h4.693v0.197c-0.52,0-0.856,0.118-1.008,0.356c-0.152,0.238-0.227,0.551-0.227,0.94
		v7.013c0,0.222,0.021,0.421,0.061,0.597c0.041,0.177,0.148,0.336,0.322,0.479c0.174,0.142,0.44,0.213,0.797,0.213h0.055v0.197
		h-4.693v-0.197c0.515,0,0.85-0.117,1.004-0.353c0.154-0.234,0.23-0.547,0.23-0.936v-7.013c0-0.462-0.101-0.795-0.301-1.001
		C334.554,134.595,334.243,134.492,333.823,134.492z"/>
	<path fill="#FFC20E" d="M340.002,134.309h6.979c0.321,0,0.587-0.04,0.8-0.123h0.197l0.054,2.347h-0.19
		c-0.099-0.687-0.268-1.125-0.505-1.313c-0.237-0.187-0.528-0.281-0.871-0.281H344.6v7.875c0,0.262,0.03,0.485,0.088,0.669
		c0.059,0.182,0.178,0.332,0.359,0.447c0.181,0.115,0.446,0.173,0.794,0.173v0.197h-4.7v-0.197c0.52,0,0.857-0.117,1.01-0.353
		c0.154-0.234,0.231-0.547,0.231-0.936v-7.875h-1.865c-0.317,0-0.574,0.101-0.773,0.302c-0.199,0.202-0.393,0.631-0.583,1.292h-0.21
		l0.055-2.347h0.197C339.413,134.269,339.68,134.309,340.002,134.309z"/>
	<path fill="#FFC20E" d="M355.662,134.309l0.082,2.238h-0.197c-0.09-0.374-0.191-0.685-0.302-0.929
		c-0.11-0.244-0.268-0.431-0.471-0.56c-0.204-0.13-0.482-0.193-0.834-0.193h-2.014v4.197h1.607c0.479,0,0.828-0.106,1.048-0.319
		c0.219-0.212,0.346-0.526,0.383-0.942h0.197v2.931h-0.197c-0.068-0.443-0.233-0.74-0.495-0.889
		c-0.262-0.15-0.574-0.225-0.936-0.225h-1.607v2.876c0,0.832,0.429,1.248,1.289,1.248h0.61c0.411,0,0.746-0.055,1.007-0.163
		c0.26-0.109,0.475-0.296,0.645-0.56c0.169-0.264,0.322-0.638,0.458-1.122h0.197l-0.15,2.401h-7.528v-0.197
		c0.524,0,0.864-0.119,1.017-0.356c0.154-0.237,0.23-0.548,0.23-0.933v-6.999c0-0.366-0.07-0.677-0.21-0.93
		c-0.14-0.252-0.464-0.379-0.969-0.379h-0.068v-0.197H355.662z"/>
</g>
<line fill="none" stroke="#FFC20E" stroke-width="1.6744" stroke-miterlimit="10" x1="20.488" y1="139.675" x2="39.659" y2="139.675"/>
<line fill="none" stroke="#FFC20E" stroke-width="1.6744" stroke-miterlimit="10" x1="359.5" y1="139.675" x2="378.671" y2="139.675"/>
<path fill="none" stroke="#FFC20E" stroke-width="1.7826" stroke-miterlimit="10" d="M329.798,66.286
	c-24.138-30.907-72.971-52.044-129.286-52.044c-56.315,0-105.146,21.137-129.285,52.044H329.798z"/>
<path fill="none" stroke="#FFC20E" stroke-width="1.7826" stroke-miterlimit="10" d="M329.798,151.737
	c-24.138,30.909-72.971,52.045-129.286,52.045c-56.315,0-105.146-21.136-129.285-52.045H329.798z"/>
<circle fill="#FFFFFF" cx="222.51" cy="49.919" r="2.123"/>
<circle fill="#FFFFFF" cx="177.402" cy="49.009" r="2.299"/>
<g>
	<circle fill="none" stroke="#FFC20E" stroke-width="1.2751" cx="222.51" cy="49.919" r="9.99"/>
	<line fill="none" stroke="#FFC20E" stroke-width="0.8501" x1="222.51" y1="39.931" x2="222.51" y2="60.048"/>
	<line fill="none" stroke="#FFC20E" stroke-width="0.8501" x1="232.568" y1="49.989" x2="212.451" y2="49.989"/>
	<line fill="none" stroke="#FFC20E" stroke-width="0.8501" x1="227.54" y1="41.279" x2="217.481" y2="58.7"/>
	<line fill="none" stroke="#FFC20E" stroke-width="0.8501" x1="217.481" y1="41.279" x2="227.54" y2="58.7"/>
	<line fill="none" stroke="#FFC20E" stroke-width="0.8501" x1="213.799" y1="44.96" x2="231.221" y2="55.019"/>
	<line fill="none" stroke="#FFC20E" stroke-width="0.8501" x1="231.22" y1="44.96" x2="213.799" y2="55.019"/>
	<circle fill="none" stroke="#FFC20E" stroke-width="1.381" cx="177.403" cy="49.009" r="10.819"/>
	<line fill="none" stroke="#FFC20E" stroke-width="0.9207" x1="177.403" y1="38.19" x2="177.403" y2="59.978"/>
	<line fill="none" stroke="#FFC20E" stroke-width="0.9207" x1="188.297" y1="49.084" x2="166.51" y2="49.084"/>
	<line fill="none" stroke="#FFC20E" stroke-width="0.9207" x1="182.85" y1="39.65" x2="171.956" y2="58.518"/>
	<line fill="none" stroke="#FFC20E" stroke-width="0.9207" x1="171.957" y1="39.65" x2="182.85" y2="58.518"/>
	<line fill="none" stroke="#FFC20E" stroke-width="0.9207" x1="167.969" y1="43.638" x2="186.838" y2="54.531"/>
	<line fill="none" stroke="#FFC20E" stroke-width="0.9207" x1="186.838" y1="43.638" x2="167.969" y2="54.531"/>
</g>
<rect x="189.967" y="47.24" fill="#FFC20E" width="21.649" height="1.948"/>
<path fill="#FFC20E" d="M190.412,41.396c0.766,0.684,1.646,2.2,1.76,3.391c2.756,0.029,11.022,0,11.022,0V25.678h-12.782
	C190.412,25.678,190.442,37.466,190.412,41.396z M191.607,26.618h10.39v10.233h-10.39V26.618z"/>
<path fill="#FFC20E" d="M162.75,44.386l0.627,2.018c0,0,1.322,0,2.019,0c0.209-1.113,3.098-9.415,11.869-9.449
	c6.716-0.027,11.311,4.89,11.867,9.519c1.95,0,12.008,0.015,15.871,0c4.629-0.017,7.918-3.046,10.686-5.343
	c3.358-2.789,9.013-2.766,11.659-1.13c0.939-0.592,4.873-3.69,4.873-3.69l3.967-1.183l-0.279-0.697l-2.296,0.628l4.664-3.968
	l-0.557-0.487l-5.604,4.594l-6.856-5.848v-3.689h-10.301c0,0,0-2.366,0-3.202c-12.39-1.95-22.833-2.018-36.267,0.07
	c0.035,0.868,0,2.07,0,2.07L162.75,44.386z M214.8,26.044h9.867v3.393H214.8V26.044z M206.156,25.583
	c1.798,0.154,3.613,0.356,5.463,0.603v9.883l-5.463,2.088V25.583z M206.156,21.789c2.634,0.227,5.306,0.554,8.07,0.975v1.705
	c-2.765-0.421-5.436-0.748-8.07-0.976V21.789z M197.137,23.104v-1.706c2.768-0.002,5.509,0.108,8.284,0.33v1.705
	C202.647,23.211,199.906,23.101,197.137,23.104z M189.967,25.035h13.643v20.395c0,0-8.823,0.031-11.764,0
	c-0.121-1.27-1.06-2.887-1.879-3.619C190.002,37.616,189.967,25.035,189.967,25.035z M188.155,21.791
	c2.896-0.246,5.696-0.375,8.461-0.392v1.705c-2.765,0.016-5.565,0.146-8.461,0.391V21.791z M181.984,26.185
	c1.85-0.247,3.666-0.448,5.463-0.603v12.574l-5.463-2.088V26.185z M179.215,22.866c2.882-0.439,5.625-0.776,8.283-1.017v1.706
	c-2.658,0.24-5.402,0.578-8.283,1.015V22.866z"/>
<path fill="#FFC20E" d="M137.183,55.479c-2.855-0.486-5.807-1.603-8.855-3.353c-1.914-1.096-3.394-2.251-4.439-3.464
	c-1.046-1.213-1.634-2.449-1.767-3.708c-0.131-1.261,0.246-2.306,1.131-3.14c0.887-0.834,2.152-1.338,3.799-1.508
	c0.788-0.083,1.621-0.081,2.499,0.004c0.878,0.085,1.754,0.246,2.63,0.478c0.875,0.232,1.784,0.547,2.725,0.944
	c0.941,0.397,1.843,0.856,2.706,1.379c1.304,0.757,2.358,1.614,3.162,2.571c0.804,0.956,1.252,1.869,1.343,2.742
	c0.085,0.824-0.122,1.498-0.625,2.022c-0.502,0.524-1.231,0.835-2.188,0.937c-1.356,0.142-2.871-0.037-4.546-0.535
	c-1.676-0.498-3.172-1.204-4.492-2.119c-1.429-1.013-2.191-1.974-2.286-2.883c-0.052-0.496,0.068-0.904,0.359-1.222
	c0.291-0.319,0.697-0.505,1.218-0.56c0.787-0.082,1.644,0.006,2.571,0.264c0.928,0.258,1.837,0.65,2.731,1.175
	c0.893,0.525,1.709,1.151,2.447,1.883l-0.598,0.596c-0.664-0.605-1.422-1.14-2.272-1.608c-0.85-0.468-1.694-0.826-2.528-1.077
	c-0.834-0.249-1.56-0.341-2.177-0.276c-0.545,0.058-0.795,0.31-0.747,0.758c0.049,0.472,0.348,0.931,0.896,1.375
	c1.114,0.936,2.624,1.726,4.527,2.372c1.768,0.623,3.36,0.861,4.777,0.711c0.617-0.063,1.099-0.255,1.445-0.574
	c0.345-0.317,0.493-0.718,0.442-1.203c-0.066-0.641-0.432-1.347-1.094-2.116c-0.662-0.77-1.536-1.488-2.623-2.158
	c-0.748-0.486-1.594-0.933-2.536-1.342c-0.943-0.409-1.846-0.731-2.709-0.965c-0.864-0.234-1.725-0.395-2.585-0.482
	c-0.86-0.087-1.683-0.09-2.471-0.008c-1.32,0.138-2.304,0.511-2.951,1.117c-0.646,0.606-0.915,1.419-0.809,2.436
	c0.05,0.483,0.193,0.962,0.425,1.433c0.233,0.472,0.579,0.96,1.035,1.462s1.027,1.031,1.709,1.583
	c2.194,1.778,5.097,3.256,8.71,4.432c2.077,0.663,4.041,1.091,5.89,1.283c1.851,0.192,3.818,0.178,5.902-0.04
	c1.755-0.183,3.473-0.51,5.149-0.98l0.364,1.193l-0.81,0.157c-0.651,0.106-1.321,0.219-2.012,0.34
	c-0.692,0.122-1.381,0.23-2.068,0.327c-0.735,0.126-1.634,0.245-2.699,0.356c-2.35,0.247-5.571,0.348-9.665,0.305
	c-4.094-0.042-7.791-0.221-11.093-0.536l-5.698-0.58c-0.879-0.09-2.256-0.194-4.129-0.311c-1.872-0.115-3.422-0.182-4.648-0.202
	c-1.731-0.038-3.28,0.013-4.647,0.157c-2.69,0.281-4.98,0.919-6.872,1.913c-1.336,0.679-1.98,1.26-1.929,1.745
	c0.006,0.06,0.091,0.217,0.252,0.469c0.165,0.412,0.249,0.628,0.25,0.653c0.026,0.242-0.058,0.468-0.25,0.678
	c-0.192,0.21-0.42,0.329-0.687,0.357c-0.302,0.032-0.565-0.05-0.788-0.248c-0.224-0.198-0.351-0.459-0.386-0.786
	c-0.065-0.63,0.174-1.265,0.719-1.903c0.545-0.639,1.342-1.236,2.392-1.794c1.05-0.556,2.251-1.032,3.607-1.425
	c1.354-0.392,2.831-0.673,4.43-0.841c1.513-0.157,3.168-0.203,4.962-0.134c0.946,0.024,1.816,0.056,2.608,0.094
	c0.794,0.039,1.707,0.101,2.737,0.182c1.031,0.082,1.819,0.15,2.364,0.202l5.856,0.507c4.34,0.415,8.37,0.593,12.084,0.534
	L137.183,55.479z M120.362,53.218c-2.347-0.782-4.845-1.432-7.495-1.95c-0.939-0.196-1.87-0.355-2.795-0.479
	c-0.924-0.124-1.775-0.206-2.552-0.247c-0.642-0.056-1.61-0.064-2.904-0.027c-0.318,0.009-0.726,0.018-1.227,0.027
	c-0.501,0.012-1.075,0.025-1.722,0.044c-0.976,0.028-1.494-0.242-1.554-0.812c-0.08-0.762,0.583-1.218,1.986-1.365
	c1.115-0.117,2.483-0.083,4.107,0.102c1.624,0.186,3.289,0.483,4.997,0.891c2.298,0.556,5.138,1.488,8.52,2.799l0.554,0.199
	L120.362,53.218z M120.43,51.412c-1.299-0.367-2.666-0.902-4.099-1.609c-1.434-0.707-2.806-1.536-4.118-2.488
	c-1.244-0.887-2.246-1.754-3.009-2.605c-0.762-0.851-1.174-1.554-1.231-2.111c-0.031-0.291,0.036-0.552,0.203-0.784
	c0.166-0.232,0.405-0.364,0.721-0.397c0.266-0.027,0.502,0.036,0.708,0.192c0.206,0.156,0.448,0.442,0.724,0.852
	c1.324,1.894,2.876,3.556,4.654,4.986c1.779,1.43,3.675,2.528,5.69,3.297L120.43,51.412z M121.664,49.52l-0.517,0.495
	c-0.88-0.337-1.755-0.883-2.624-1.635c-0.868-0.754-1.595-1.578-2.177-2.472c-0.583-0.893-0.915-1.716-0.993-2.466
	c-0.037-0.351,0.016-0.652,0.162-0.9c0.146-0.248,0.358-0.386,0.636-0.415c0.254-0.027,0.467,0.046,0.638,0.218
	c0.172,0.172,0.338,0.506,0.501,1.003c0.565,1.668,1.19,2.977,1.87,3.927C119.842,48.225,120.677,48.975,121.664,49.52z
	 M123.935,52.092c0.019,0.303-0.063,0.56-0.25,0.77c-0.186,0.209-0.454,0.332-0.805,0.368c-0.352,0.038-0.667-0.046-0.945-0.249
	c-0.278-0.203-0.435-0.474-0.47-0.814c-0.034-0.315,0.057-0.591,0.271-0.827c0.214-0.236,0.504-0.374,0.866-0.412
	c0.364-0.038,0.667,0.055,0.911,0.281C123.756,51.433,123.897,51.728,123.935,52.092z M126.755,53.228
	c0.021,0.206-0.037,0.384-0.175,0.533c-0.137,0.149-0.315,0.234-0.534,0.257c-0.229,0.025-0.437-0.027-0.622-0.155
	c-0.185-0.127-0.291-0.319-0.318-0.572c-0.021-0.206,0.033-0.395,0.161-0.568c0.13-0.173,0.308-0.271,0.538-0.296
	c0.243-0.025,0.454,0.035,0.634,0.182C126.622,52.756,126.726,52.962,126.755,53.228z M128.549,54.583
	c-0.194,0.021-0.373-0.025-0.538-0.136c-0.164-0.111-0.257-0.264-0.277-0.458c-0.019-0.181,0.026-0.34,0.134-0.473
	c0.108-0.134,0.253-0.21,0.436-0.228c0.204-0.023,0.382,0.027,0.528,0.146c0.148,0.119,0.232,0.282,0.254,0.487
	C129.128,54.321,128.948,54.541,128.549,54.583z"/>
<path fill="#FFC20E" d="M264.096,55.527c3.715,0.059,7.744-0.119,12.084-0.534l5.857-0.507c0.544-0.052,1.333-0.12,2.364-0.202
	c1.03-0.082,1.943-0.143,2.737-0.182c0.793-0.038,1.662-0.07,2.608-0.094c1.794-0.069,3.449-0.023,4.963,0.134
	c1.599,0.168,3.075,0.448,4.43,0.841c1.355,0.393,2.556,0.869,3.606,1.425c1.05,0.557,1.847,1.154,2.392,1.794
	c0.545,0.638,0.784,1.272,0.719,1.903c-0.034,0.327-0.162,0.588-0.386,0.786c-0.223,0.198-0.486,0.279-0.787,0.248
	c-0.267-0.028-0.496-0.147-0.688-0.357c-0.193-0.209-0.275-0.436-0.25-0.678c0.002-0.025,0.086-0.242,0.251-0.653
	c0.161-0.252,0.246-0.409,0.251-0.469c0.051-0.485-0.593-1.066-1.929-1.745c-1.891-0.994-4.182-1.632-6.871-1.913
	c-1.368-0.144-2.917-0.196-4.648-0.157c-1.226,0.019-2.775,0.086-4.648,0.202c-1.873,0.117-3.249,0.221-4.128,0.311l-5.699,0.58
	c-3.302,0.315-6.999,0.493-11.093,0.536c-4.093,0.043-7.315-0.059-9.664-0.305c-1.066-0.111-1.965-0.23-2.7-0.356
	c-0.687-0.097-1.376-0.205-2.067-0.327c-0.692-0.121-1.363-0.234-2.013-0.34l-0.81-0.157l0.365-1.193
	c1.676,0.469,3.393,0.796,5.149,0.98c2.082,0.219,4.05,0.232,5.901,0.04c1.849-0.192,3.814-0.62,5.891-1.283
	c3.612-1.177,6.516-2.654,8.709-4.432c0.683-0.553,1.253-1.081,1.709-1.583c0.458-0.503,0.802-0.99,1.035-1.462
	c0.232-0.471,0.375-0.95,0.426-1.433c0.106-1.017-0.164-1.83-0.81-2.436c-0.647-0.606-1.63-0.979-2.95-1.117
	c-0.789-0.083-1.612-0.08-2.472,0.008c-0.86,0.086-1.722,0.248-2.585,0.482c-0.862,0.234-1.766,0.557-2.708,0.965
	c-0.943,0.409-1.789,0.856-2.537,1.342c-1.086,0.67-1.96,1.389-2.623,2.158c-0.662,0.769-1.028,1.475-1.094,2.116
	c-0.051,0.486,0.097,0.887,0.442,1.203c0.346,0.319,0.828,0.51,1.445,0.574c1.418,0.15,3.009-0.088,4.777-0.711
	c1.904-0.646,3.413-1.437,4.528-2.372c0.548-0.444,0.848-0.903,0.896-1.375c0.048-0.448-0.202-0.701-0.747-0.758
	c-0.617-0.064-1.343,0.028-2.176,0.276c-0.835,0.25-1.678,0.608-2.529,1.077s-1.607,1.004-2.271,1.608l-0.599-0.596
	c0.739-0.731,1.555-1.358,2.447-1.883c0.894-0.525,1.804-0.917,2.731-1.175c0.927-0.258,1.784-0.345,2.572-0.264
	c0.52,0.056,0.926,0.242,1.217,0.56c0.292,0.318,0.411,0.725,0.359,1.222c-0.095,0.909-0.857,1.869-2.286,2.883
	c-1.32,0.914-2.816,1.621-4.491,2.119c-1.676,0.498-3.19,0.677-4.547,0.535c-0.957-0.102-1.685-0.413-2.188-0.937
	c-0.503-0.524-0.71-1.198-0.624-2.022c0.09-0.872,0.539-1.786,1.342-2.742c0.805-0.957,1.859-1.814,3.162-2.571
	c0.864-0.523,1.765-0.982,2.706-1.379c0.942-0.397,1.85-0.712,2.725-0.944c0.876-0.232,1.752-0.392,2.631-0.478
	c0.877-0.085,1.71-0.086,2.498-0.004c1.648,0.171,2.912,0.675,3.799,1.508c0.887,0.834,1.263,1.879,1.131,3.14
	c-0.132,1.259-0.721,2.495-1.767,3.708c-1.045,1.213-2.525,2.368-4.439,3.464c-3.049,1.75-6,2.867-8.855,3.353L264.096,55.527z
	 M280.18,52.401l0.554-0.199c3.383-1.311,6.222-2.244,8.52-2.799c1.708-0.408,3.374-0.704,4.997-0.891
	c1.624-0.184,2.993-0.219,4.107-0.102c1.404,0.147,2.066,0.603,1.986,1.365c-0.059,0.57-0.578,0.84-1.554,0.812
	c-0.647-0.019-1.221-0.033-1.722-0.044c-0.501-0.009-0.911-0.018-1.228-0.027c-1.294-0.037-2.261-0.029-2.904,0.027
	c-0.776,0.04-1.628,0.123-2.551,0.247c-0.926,0.124-1.858,0.283-2.796,0.479c-2.65,0.518-5.148,1.168-7.496,1.95L280.18,52.401z
	 M279.785,50.744c2.015-0.77,3.911-1.867,5.69-3.297c1.777-1.43,3.329-3.092,4.654-4.986c0.274-0.411,0.516-0.696,0.724-0.852
	c0.205-0.155,0.441-0.219,0.707-0.192c0.316,0.034,0.556,0.165,0.721,0.397c0.167,0.232,0.233,0.493,0.203,0.784
	c-0.058,0.558-0.469,1.26-1.231,2.111c-0.762,0.851-1.766,1.719-3.009,2.605c-1.311,0.952-2.683,1.781-4.117,2.488
	c-1.434,0.707-2.8,1.243-4.099,1.609L279.785,50.744z M281.296,47.275c0.68-0.95,1.306-2.259,1.87-3.927
	c0.163-0.497,0.329-0.831,0.501-1.003c0.171-0.172,0.384-0.245,0.638-0.218c0.278,0.029,0.49,0.167,0.636,0.415
	c0.146,0.249,0.2,0.549,0.163,0.9c-0.079,0.75-0.411,1.573-0.994,2.466c-0.582,0.894-1.309,1.718-2.177,2.472
	c-0.868,0.752-1.744,1.298-2.623,1.635l-0.518-0.495C279.781,48.975,280.615,48.225,281.296,47.275z M276.944,51.209
	c0.244-0.226,0.547-0.32,0.912-0.281c0.362,0.037,0.652,0.176,0.866,0.412c0.214,0.236,0.305,0.512,0.271,0.827
	c-0.035,0.34-0.192,0.61-0.47,0.814s-0.593,0.288-0.944,0.249c-0.351-0.036-0.62-0.159-0.806-0.368
	c-0.187-0.209-0.27-0.466-0.25-0.77C276.561,51.728,276.701,51.433,276.944,51.209z M274.016,52.61
	c0.18-0.147,0.391-0.207,0.635-0.182c0.229,0.025,0.409,0.123,0.537,0.296c0.129,0.173,0.182,0.362,0.161,0.568
	c-0.027,0.253-0.132,0.445-0.317,0.572c-0.186,0.129-0.393,0.18-0.623,0.155c-0.218-0.023-0.396-0.108-0.534-0.257
	c-0.137-0.15-0.196-0.327-0.174-0.533C273.731,52.962,273.834,52.756,274.016,52.61z M271.371,53.921
	c0.022-0.205,0.107-0.368,0.254-0.487c0.147-0.119,0.323-0.169,0.529-0.146c0.182,0.018,0.326,0.094,0.436,0.228
	c0.108,0.133,0.153,0.292,0.134,0.473c-0.021,0.194-0.114,0.346-0.278,0.458c-0.165,0.111-0.344,0.157-0.537,0.136
	C271.508,54.541,271.329,54.321,271.371,53.921z"/>
<path fill="#FFC20E" d="M123.48,175.072c-2.816-0.939-5.814-1.718-8.994-2.34c-1.128-0.236-2.245-0.426-3.356-0.576
	c-1.108-0.148-2.129-0.248-3.061-0.296c-0.771-0.067-1.932-0.077-3.485-0.033c-0.38,0.012-0.871,0.023-1.472,0.035
	c-0.602,0.011-1.29,0.029-2.067,0.052c-1.171,0.033-1.794-0.29-1.865-0.973c-0.096-0.915,0.699-1.462,2.384-1.639
	c1.338-0.14,2.981-0.1,4.929,0.123c1.948,0.223,3.947,0.578,5.997,1.069c2.758,0.666,6.166,1.785,10.225,3.359l0.664,0.238
	L123.48,175.072z M123.561,172.905c-1.559-0.44-3.199-1.082-4.919-1.931c-1.721-0.848-3.367-1.844-4.941-2.986
	c-1.492-1.063-2.695-2.105-3.611-3.126c-0.914-1.021-1.408-1.865-1.477-2.533c-0.037-0.349,0.043-0.662,0.242-0.94
	c0.2-0.278,0.487-0.438,0.866-0.476c0.32-0.035,0.603,0.042,0.849,0.23c0.249,0.186,0.538,0.528,0.868,1.021
	c1.59,2.272,3.452,4.266,5.585,5.982c2.135,1.716,4.41,3.034,6.828,3.957L123.561,172.905z M125.042,170.633l-0.621,0.595
	c-1.057-0.403-2.105-1.057-3.147-1.961c-1.042-0.906-1.914-1.894-2.614-2.965c-0.7-1.073-1.098-2.061-1.192-2.961
	c-0.044-0.422,0.02-0.781,0.196-1.079c0.175-0.297,0.429-0.464,0.763-0.499c0.305-0.033,0.561,0.056,0.766,0.261
	c0.206,0.207,0.406,0.608,0.601,1.205c0.679,2,1.428,3.572,2.245,4.712C122.855,169.08,123.857,169.98,125.042,170.633z
	 M127.767,173.719c0.024,0.367-0.076,0.674-0.3,0.925c-0.224,0.251-0.545,0.399-0.966,0.443c-0.422,0.044-0.8-0.056-1.133-0.299
	c-0.334-0.246-0.523-0.57-0.564-0.977c-0.041-0.378,0.067-0.71,0.323-0.992c0.258-0.286,0.606-0.449,1.04-0.495
	c0.437-0.046,0.8,0.065,1.093,0.338C127.552,172.93,127.721,173.283,127.767,173.719z M131.151,175.083
	c0.026,0.248-0.045,0.461-0.209,0.639c-0.165,0.18-0.378,0.282-0.64,0.311c-0.275,0.029-0.525-0.033-0.748-0.186
	c-0.222-0.153-0.348-0.384-0.38-0.689c-0.026-0.246,0.038-0.474,0.193-0.681c0.155-0.207,0.37-0.324,0.646-0.353
	c0.292-0.031,0.545,0.042,0.762,0.217C130.992,174.517,131.116,174.765,131.151,175.083z M133.304,176.711
	c-0.232,0.023-0.448-0.031-0.646-0.165c-0.197-0.134-0.309-0.317-0.333-0.549c-0.023-0.219,0.031-0.409,0.161-0.568
	c0.13-0.161,0.303-0.251,0.522-0.274c0.247-0.027,0.459,0.033,0.634,0.177c0.177,0.142,0.278,0.338,0.304,0.583
	C133.998,176.394,133.783,176.659,133.304,176.711z"/>
<path fill="#FFC20E" d="M277.08,174.091l0.664-0.238c4.059-1.574,7.467-2.693,10.225-3.359c2.05-0.491,4.049-0.846,5.996-1.069
	c1.949-0.223,3.592-0.263,4.929-0.123c1.685,0.176,2.48,0.724,2.384,1.639c-0.07,0.683-0.693,1.006-1.864,0.973
	c-0.776-0.023-1.465-0.04-2.066-0.052c-0.602-0.012-1.093-0.023-1.474-0.035c-1.553-0.044-2.713-0.035-3.484,0.033
	c-0.932,0.048-1.954,0.148-3.061,0.296c-1.111,0.15-2.229,0.34-3.356,0.576c-3.18,0.622-6.178,1.401-8.994,2.34L277.08,174.091z
	 M276.605,172.103c2.418-0.923,4.694-2.242,6.829-3.957c2.133-1.716,3.995-3.71,5.585-5.982c0.33-0.493,0.62-0.835,0.868-1.021
	c0.247-0.188,0.53-0.265,0.849-0.23c0.378,0.038,0.666,0.198,0.865,0.476c0.201,0.278,0.279,0.591,0.243,0.94
	c-0.069,0.668-0.563,1.512-1.478,2.533c-0.914,1.021-2.119,2.063-3.611,3.126c-1.573,1.142-3.22,2.138-4.94,2.986
	c-1.721,0.848-3.36,1.491-4.919,1.931L276.605,172.103z M278.418,167.94c0.817-1.14,1.568-2.712,2.245-4.712
	c0.196-0.597,0.395-0.998,0.602-1.205c0.204-0.205,0.461-0.294,0.766-0.261c0.334,0.035,0.588,0.202,0.763,0.499
	c0.176,0.298,0.24,0.656,0.196,1.079c-0.094,0.9-0.492,1.889-1.193,2.961c-0.699,1.071-1.571,2.059-2.613,2.965
	c-1.042,0.904-2.092,1.558-3.147,1.961l-0.622-0.595C276.601,169.98,277.601,169.08,278.418,167.94z M273.196,172.661
	c0.293-0.272,0.656-0.384,1.094-0.338c0.435,0.046,0.782,0.209,1.039,0.495c0.256,0.282,0.366,0.614,0.324,0.992
	c-0.041,0.407-0.23,0.731-0.564,0.977c-0.334,0.244-0.711,0.344-1.133,0.299c-0.421-0.044-0.744-0.192-0.967-0.443
	c-0.225-0.251-0.323-0.559-0.299-0.925C272.736,173.283,272.904,172.93,273.196,172.661z M269.682,174.34
	c0.217-0.175,0.47-0.248,0.762-0.217c0.275,0.029,0.491,0.146,0.645,0.353c0.154,0.207,0.219,0.436,0.194,0.681
	c-0.033,0.305-0.159,0.536-0.38,0.689c-0.224,0.154-0.472,0.215-0.747,0.186c-0.261-0.029-0.475-0.131-0.64-0.311
	c-0.165-0.179-0.235-0.392-0.208-0.639C269.341,174.765,269.464,174.517,269.682,174.34z M266.509,175.914
	c0.026-0.246,0.128-0.441,0.305-0.583c0.176-0.144,0.388-0.203,0.634-0.177c0.219,0.023,0.391,0.113,0.523,0.274
	c0.129,0.159,0.183,0.349,0.161,0.568c-0.026,0.232-0.137,0.414-0.334,0.549c-0.199,0.134-0.414,0.188-0.645,0.165
	C266.673,176.659,266.458,176.394,266.509,175.914z"/>
<g>
	<path fill="#FFC20E" d="M139.143,169.165c0-0.66,0.113-1.293,0.34-1.896c0.227-0.604,0.561-1.133,1.001-1.589
		c0.44-0.456,0.974-0.811,1.603-1.064c0.628-0.253,1.338-0.38,2.131-0.38c0.802,0,1.517,0.129,2.145,0.387
		c0.628,0.258,1.161,0.616,1.599,1.074c0.438,0.459,0.77,0.987,0.994,1.589c0.225,0.602,0.337,1.242,0.337,1.92
		c0,0.674-0.109,1.308-0.327,1.903c-0.218,0.595-0.538,1.121-0.962,1.58c-0.423,0.458-0.955,0.82-1.596,1.083
		c-0.641,0.264-1.367,0.396-2.177,0.396c-0.872,0-1.633-0.149-2.283-0.446c-0.65-0.297-1.181-0.69-1.593-1.179
		c-0.412-0.488-0.717-1.029-0.915-1.619C139.243,170.333,139.143,169.747,139.143,169.165z M141.456,169.04
		c0,0.661,0.049,1.312,0.148,1.953c0.099,0.641,0.356,1.241,0.77,1.797c0.414,0.558,1.037,0.837,1.87,0.837
		c1.167,0,1.915-0.47,2.243-1.412c0.328-0.94,0.492-1.9,0.492-2.878c0-0.762-0.066-1.476-0.198-2.141
		c-0.132-0.665-0.402-1.234-0.809-1.708c-0.407-0.473-0.984-0.71-1.728-0.71c-0.837,0-1.462,0.27-1.874,0.809
		c-0.412,0.54-0.667,1.114-0.767,1.722C141.506,167.917,141.456,168.494,141.456,169.04z"/>
	<path fill="#FFC20E" d="M157.388,174.062h-7.414v-0.192c0.507,0,0.833-0.113,0.981-0.34c0.148-0.227,0.221-0.533,0.221-0.915
		v-6.833c0-0.423-0.091-0.74-0.274-0.949c-0.183-0.209-0.492-0.314-0.928-0.314v-0.191h4.599v0.191
		c-0.507,0-0.838,0.113-0.995,0.341c-0.156,0.227-0.235,0.535-0.235,0.922v6.508c0,0.401,0.077,0.706,0.231,0.915
		c0.154,0.209,0.456,0.314,0.905,0.314h0.674c0.458,0,0.889-0.116,1.295-0.35c0.405-0.233,0.767-0.775,1.084-1.626h0.191
		L157.388,174.062z"/>
	<path fill="#FFC20E" d="M163.766,164.236l3.271,8.419c0.176,0.432,0.383,0.728,0.621,0.889c0.237,0.161,0.531,0.271,0.878,0.327
		v0.192h-4.612v-0.192c0.63-0.035,0.945-0.233,0.945-0.594c0-0.058-0.01-0.138-0.03-0.242c-0.02-0.104-0.046-0.213-0.08-0.33
		c-0.033-0.117-0.054-0.188-0.063-0.215l-0.813-2.068h-2.907l-0.694,1.988c-0.088,0.238-0.132,0.454-0.132,0.648
		c0,0.3,0.088,0.502,0.264,0.605c0.176,0.104,0.385,0.174,0.628,0.208v0.192h-2.921v-0.192c0.304-0.031,0.588-0.173,0.852-0.426
		c0.264-0.253,0.52-0.719,0.767-1.397l2.762-7.811H163.766z M161.201,169.774h2.425l-1.255-3.278L161.201,169.774z"/>
	<path fill="#FFC20E" d="M168.926,164.329h6.8c0.313,0,0.572-0.04,0.78-0.119h0.191l0.053,2.286h-0.185
		c-0.097-0.67-0.261-1.096-0.492-1.278c-0.231-0.183-0.514-0.274-0.849-0.274h-1.817v7.672c0,0.255,0.028,0.472,0.086,0.651
		c0.057,0.178,0.174,0.324,0.35,0.437c0.176,0.112,0.434,0.168,0.773,0.168v0.192h-4.579v-0.192c0.506,0,0.834-0.114,0.985-0.344
		c0.15-0.228,0.225-0.533,0.225-0.912v-7.672h-1.818c-0.308,0-0.559,0.098-0.753,0.294c-0.194,0.197-0.383,0.616-0.568,1.259h-0.205
		l0.053-2.286h0.192C168.353,164.289,168.613,164.329,168.926,164.329z"/>
	<path fill="#FFC20E" d="M180.53,168.689h4.599v-2.894c0-0.352-0.066-0.652-0.199-0.902c-0.132-0.249-0.445-0.373-0.938-0.373
		h-0.066v-0.191h4.573v0.191c-0.511,0-0.84,0.117-0.985,0.35c-0.145,0.234-0.218,0.542-0.218,0.925v6.82
		c0,0.211,0.02,0.404,0.06,0.578c0.04,0.175,0.143,0.331,0.31,0.469c0.167,0.139,0.423,0.208,0.767,0.208h0.066v0.192h-4.573v-0.192
		c0.515,0,0.844-0.114,0.988-0.344c0.143-0.228,0.215-0.533,0.215-0.912v-3.278h-4.599v3.278c0,0.216,0.02,0.411,0.059,0.584
		c0.039,0.175,0.143,0.33,0.311,0.466c0.167,0.136,0.423,0.204,0.767,0.204h0.066v0.192h-4.573v-0.192
		c0.511,0,0.839-0.114,0.985-0.344c0.145-0.228,0.218-0.533,0.218-0.912v-6.82c0-0.357-0.067-0.658-0.201-0.905
		c-0.134-0.247-0.446-0.37-0.935-0.37h-0.066v-0.191h4.573v0.191c-0.502,0-0.828,0.116-0.978,0.347
		c-0.15,0.231-0.225,0.54-0.225,0.928V168.689z"/>
	<path fill="#FFC20E" d="M195.894,164.329l0.079,2.18h-0.191c-0.088-0.366-0.186-0.668-0.294-0.905
		c-0.108-0.238-0.261-0.42-0.459-0.546c-0.198-0.125-0.469-0.188-0.813-0.188h-1.963v4.091h1.566c0.467,0,0.808-0.104,1.021-0.311
		c0.214-0.207,0.338-0.513,0.373-0.918h0.192v2.855h-0.192c-0.066-0.432-0.227-0.721-0.482-0.866
		c-0.256-0.146-0.559-0.219-0.912-0.219h-1.566v2.802c0,0.811,0.419,1.216,1.256,1.216h0.595c0.401,0,0.728-0.053,0.981-0.158
		c0.253-0.106,0.463-0.287,0.628-0.545c0.165-0.258,0.314-0.622,0.446-1.094h0.191l-0.145,2.34h-7.335v-0.192
		c0.511,0,0.841-0.115,0.991-0.346c0.15-0.231,0.225-0.535,0.225-0.909v-6.82c0-0.357-0.068-0.658-0.205-0.905
		c-0.137-0.247-0.452-0.37-0.945-0.37h-0.066v-0.191H195.894z"/>
	<path fill="#FFC20E" d="M196.945,175.715v-0.231c0.318-0.159,0.571-0.365,0.76-0.618c0.19-0.253,0.285-0.453,0.285-0.599
		c0-0.07-0.023-0.112-0.066-0.125c-0.379-0.058-0.62-0.2-0.724-0.427c-0.104-0.227-0.155-0.441-0.155-0.644
		c0-0.33,0.112-0.595,0.337-0.793c0.225-0.199,0.487-0.298,0.786-0.298c0.366,0,0.665,0.13,0.896,0.39
		c0.231,0.26,0.347,0.575,0.347,0.945c0,0.33-0.103,0.663-0.308,0.998c-0.205,0.335-0.496,0.629-0.872,0.885
		C197.853,175.455,197.425,175.626,196.945,175.715z"/>
	<path fill="#FFC20E" d="M210.174,164.329h4.103v0.191c-0.524,0.035-1.032,0.209-1.523,0.522c-0.491,0.313-0.931,0.672-1.319,1.078
		l-1.757,1.811l4.017,4.889c0.556,0.67,1.073,1.02,1.554,1.051v0.192h-4.521v-0.192c0.159-0.017,0.294-0.052,0.404-0.102
		c0.109-0.051,0.165-0.138,0.165-0.261c0-0.124-0.09-0.296-0.271-0.516l-3.013-3.707h-0.039v3.331c0,0.454,0.096,0.776,0.287,0.968
		c0.192,0.191,0.497,0.287,0.916,0.287v0.192h-4.573v-0.192c0.511,0,0.839-0.114,0.985-0.344c0.145-0.228,0.218-0.533,0.218-0.912
		v-6.833c0-0.441-0.085-0.764-0.254-0.968c-0.17-0.205-0.486-0.308-0.948-0.308v-0.178h4.573v0.191
		c-0.507,0-0.834,0.116-0.981,0.347c-0.148,0.231-0.222,0.536-0.222,0.915v3.178l2.881-3.033c0.287-0.335,0.43-0.61,0.43-0.826
		c0-0.388-0.37-0.582-1.11-0.582V164.329z"/>
	<path fill="#FFC20E" d="M221.223,164.236l3.271,8.419c0.177,0.432,0.383,0.728,0.621,0.889c0.238,0.161,0.531,0.271,0.879,0.327
		v0.192h-4.612v-0.192c0.63-0.035,0.944-0.233,0.944-0.594c0-0.058-0.01-0.138-0.03-0.242c-0.019-0.104-0.046-0.213-0.079-0.33
		c-0.034-0.117-0.055-0.188-0.063-0.215l-0.813-2.068h-2.908l-0.694,1.988c-0.088,0.238-0.132,0.454-0.132,0.648
		c0,0.3,0.088,0.502,0.265,0.605c0.176,0.104,0.386,0.174,0.628,0.208v0.192h-2.921v-0.192c0.304-0.031,0.588-0.173,0.853-0.426
		c0.264-0.253,0.519-0.719,0.767-1.397l2.762-7.811H221.223z M218.659,169.774h2.426l-1.256-3.278L218.659,169.774z"/>
	<path fill="#FFC20E" d="M229.853,164.329l5.941,6.271v-4.455c0-0.585-0.119-0.986-0.357-1.2c-0.238-0.213-0.602-0.355-1.09-0.426
		v-0.191h3.357v0.191c-0.37,0.04-0.646,0.14-0.826,0.301c-0.18,0.16-0.298,0.348-0.35,0.564c-0.053,0.216-0.079,0.469-0.079,0.76
		v8.022h-0.245l-7.123-7.494v5.478c0,0.458,0.098,0.849,0.294,1.173c0.196,0.324,0.559,0.506,1.087,0.545v0.192h-3.476v-0.192
		c0.973-0.079,1.456-0.557,1.447-1.434v-6.443c-0.027-0.017-0.062-0.049-0.107-0.093c-0.039-0.039-0.106-0.103-0.198-0.191
		c-0.093-0.088-0.176-0.168-0.251-0.238c-0.59-0.568-1.107-0.886-1.553-0.952v-0.191H229.853z"/>
	<path fill="#FFC20E" d="M243.77,166.74h-0.257c-0.177-0.608-0.457-1.087-0.84-1.438c-0.383-0.35-0.848-0.525-1.394-0.525
		c-0.269,0-0.514,0.054-0.737,0.162c-0.223,0.108-0.398,0.262-0.529,0.463c-0.13,0.201-0.195,0.43-0.195,0.69
		c0,0.15,0.026,0.297,0.076,0.443c0.051,0.145,0.174,0.323,0.368,0.535c0.194,0.212,0.488,0.445,0.885,0.701
		c0.445,0.277,0.716,0.454,0.813,0.529c0.556,0.348,1.009,0.672,1.362,0.971c0.352,0.3,0.621,0.624,0.806,0.972
		c0.185,0.347,0.277,0.742,0.277,1.182c0,0.406-0.078,0.774-0.234,1.107c-0.156,0.333-0.379,0.621-0.668,0.866
		c-0.288,0.245-0.632,0.434-1.031,0.568c-0.398,0.134-0.832,0.201-1.298,0.201c-0.481,0-1.036-0.09-1.665-0.271
		c-0.071-0.017-0.16-0.037-0.268-0.059c-0.108-0.022-0.204-0.034-0.288-0.034c-0.207,0-0.357,0.108-0.449,0.324h-0.231l0.06-2.749
		h0.257c0.084,0.52,0.264,0.954,0.539,1.302c0.274,0.347,0.586,0.6,0.935,0.756c0.348,0.156,0.689,0.235,1.024,0.235
		c0.489,0,0.893-0.137,1.213-0.41c0.32-0.273,0.479-0.606,0.479-0.998c0-0.265-0.067-0.494-0.201-0.691
		c-0.134-0.196-0.336-0.39-0.605-0.582c-0.269-0.191-0.775-0.525-1.52-1.001c-0.392-0.255-0.725-0.502-1.001-0.74
		c-0.275-0.238-0.49-0.466-0.644-0.684c-0.154-0.218-0.264-0.436-0.327-0.654c-0.064-0.218-0.096-0.45-0.096-0.697
		c0-0.476,0.122-0.945,0.367-1.408c0.245-0.463,0.591-0.841,1.041-1.133c0.449-0.293,0.962-0.44,1.539-0.44
		c0.269,0,0.527,0.027,0.773,0.08c0.066,0.009,0.154,0.027,0.264,0.056c0.11,0.029,0.202,0.052,0.278,0.07
		c0.194,0.034,0.339,0.053,0.436,0.053c0.15,0,0.254-0.024,0.314-0.073c0.06-0.049,0.116-0.119,0.169-0.211h0.204V166.74z"/>
	<path fill="#FFC20E" d="M250.549,164.236l3.271,8.419c0.177,0.432,0.383,0.728,0.621,0.889c0.238,0.161,0.531,0.271,0.879,0.327
		v0.192h-4.612v-0.192c0.629-0.035,0.944-0.233,0.944-0.594c0-0.058-0.01-0.138-0.03-0.242c-0.019-0.104-0.046-0.213-0.079-0.33
		c-0.034-0.117-0.055-0.188-0.063-0.215l-0.813-2.068h-2.908l-0.694,1.988c-0.088,0.238-0.132,0.454-0.132,0.648
		c0,0.3,0.088,0.502,0.265,0.605c0.176,0.104,0.386,0.174,0.628,0.208v0.192h-2.921v-0.192c0.304-0.031,0.588-0.173,0.853-0.426
		c0.264-0.253,0.519-0.719,0.767-1.397l2.762-7.811H250.549z M247.985,169.774h2.426l-1.256-3.278L247.985,169.774z"/>
	<path fill="#FFC20E" d="M261.387,166.74h-0.257c-0.177-0.608-0.457-1.087-0.84-1.438c-0.383-0.35-0.848-0.525-1.394-0.525
		c-0.269,0-0.514,0.054-0.737,0.162c-0.223,0.108-0.398,0.262-0.529,0.463c-0.13,0.201-0.195,0.43-0.195,0.69
		c0,0.15,0.026,0.297,0.076,0.443c0.051,0.145,0.174,0.323,0.368,0.535c0.194,0.212,0.488,0.445,0.885,0.701
		c0.445,0.277,0.716,0.454,0.813,0.529c0.556,0.348,1.009,0.672,1.362,0.971c0.352,0.3,0.621,0.624,0.806,0.972
		c0.185,0.347,0.277,0.742,0.277,1.182c0,0.406-0.078,0.774-0.234,1.107c-0.156,0.333-0.379,0.621-0.668,0.866
		c-0.288,0.245-0.632,0.434-1.031,0.568c-0.398,0.134-0.832,0.201-1.298,0.201c-0.481,0-1.035-0.09-1.665-0.271
		c-0.071-0.017-0.16-0.037-0.268-0.059c-0.108-0.022-0.204-0.034-0.288-0.034c-0.207,0-0.357,0.108-0.449,0.324h-0.231l0.06-2.749
		h0.257c0.084,0.52,0.264,0.954,0.539,1.302c0.274,0.347,0.586,0.6,0.935,0.756c0.348,0.156,0.689,0.235,1.024,0.235
		c0.489,0,0.893-0.137,1.213-0.41c0.32-0.273,0.479-0.606,0.479-0.998c0-0.265-0.067-0.494-0.202-0.691
		c-0.134-0.196-0.336-0.39-0.605-0.582c-0.269-0.191-0.775-0.525-1.52-1.001c-0.392-0.255-0.725-0.502-1.001-0.74
		c-0.275-0.238-0.49-0.466-0.644-0.684c-0.154-0.218-0.264-0.436-0.327-0.654c-0.064-0.218-0.096-0.45-0.096-0.697
		c0-0.476,0.122-0.945,0.367-1.408c0.245-0.463,0.591-0.841,1.041-1.133c0.449-0.293,0.963-0.44,1.539-0.44
		c0.269,0,0.527,0.027,0.773,0.08c0.066,0.009,0.154,0.027,0.264,0.056c0.11,0.029,0.202,0.052,0.278,0.07
		c0.194,0.034,0.339,0.053,0.436,0.053c0.15,0,0.254-0.024,0.314-0.073c0.059-0.049,0.116-0.119,0.169-0.211h0.204V166.74z"/>
	<path fill="#FFC20E" d="M181.954,182.483l0.067,1.845h-0.162c-0.074-0.309-0.157-0.565-0.249-0.766
		c-0.092-0.202-0.221-0.355-0.389-0.462c-0.168-0.106-0.397-0.159-0.688-0.159h-1.661v3.461h1.325c0.395,0,0.683-0.088,0.864-0.263
		c0.18-0.176,0.286-0.435,0.316-0.777h0.162v2.415h-0.162c-0.056-0.366-0.192-0.609-0.408-0.732
		c-0.216-0.123-0.473-0.185-0.772-0.185h-1.325v2.371c0,0.686,0.354,1.029,1.063,1.029h0.503c0.339,0,0.616-0.044,0.831-0.134
		c0.214-0.089,0.391-0.243,0.531-0.461c0.14-0.219,0.266-0.527,0.378-0.926h0.162l-0.123,1.98h-6.206v-0.162
		c0.432,0,0.712-0.098,0.839-0.294c0.127-0.196,0.19-0.452,0.19-0.769v-5.77c0-0.302-0.058-0.558-0.173-0.767
		c-0.116-0.208-0.382-0.313-0.8-0.313h-0.056v-0.162H181.954z"/>
	<path fill="#FFC20E" d="M187.677,184.524h-0.218c-0.149-0.514-0.386-0.92-0.71-1.216c-0.324-0.297-0.718-0.445-1.18-0.445
		c-0.227,0-0.436,0.046-0.624,0.137c-0.188,0.091-0.337,0.222-0.447,0.391c-0.11,0.17-0.165,0.365-0.165,0.584
		c0,0.127,0.022,0.251,0.064,0.374c0.043,0.123,0.146,0.274,0.311,0.453c0.164,0.179,0.413,0.377,0.749,0.593
		c0.376,0.235,0.606,0.384,0.688,0.447c0.47,0.295,0.854,0.568,1.152,0.822c0.298,0.253,0.525,0.527,0.682,0.821
		c0.157,0.295,0.235,0.629,0.235,1.001c0,0.344-0.066,0.655-0.199,0.937c-0.132,0.281-0.321,0.526-0.565,0.732
		c-0.244,0.207-0.535,0.368-0.872,0.482c-0.337,0.113-0.703,0.17-1.099,0.17c-0.406,0-0.876-0.076-1.409-0.229
		c-0.059-0.014-0.135-0.032-0.226-0.05c-0.091-0.019-0.172-0.028-0.243-0.028c-0.176,0-0.302,0.091-0.38,0.273h-0.196l0.05-2.326
		h0.218c0.071,0.441,0.223,0.807,0.455,1.102c0.233,0.295,0.497,0.509,0.791,0.64c0.295,0.132,0.583,0.199,0.867,0.199
		c0.414,0,0.756-0.115,1.026-0.346c0.27-0.231,0.405-0.512,0.405-0.844c0-0.224-0.057-0.418-0.17-0.584
		c-0.114-0.166-0.285-0.33-0.512-0.492c-0.227-0.162-0.656-0.444-1.286-0.846c-0.332-0.217-0.614-0.425-0.847-0.627
		c-0.233-0.202-0.415-0.394-0.545-0.579s-0.223-0.369-0.277-0.554c-0.054-0.184-0.081-0.381-0.081-0.59
		c0-0.402,0.104-0.799,0.311-1.191c0.207-0.392,0.5-0.711,0.881-0.959c0.38-0.248,0.814-0.372,1.303-0.372
		c0.227,0,0.445,0.023,0.654,0.067c0.056,0.008,0.13,0.024,0.224,0.048c0.094,0.024,0.172,0.044,0.235,0.058
		c0.164,0.03,0.287,0.045,0.369,0.045c0.127,0,0.215-0.021,0.266-0.061c0.05-0.041,0.098-0.101,0.143-0.179h0.173V184.524z"/>
	<path fill="#FFC20E" d="M189.572,182.483h5.754c0.264,0,0.485-0.034,0.66-0.101h0.162l0.045,1.935h-0.156
		c-0.082-0.566-0.221-0.927-0.417-1.081c-0.196-0.155-0.436-0.232-0.719-0.232h-1.538v6.492c0,0.216,0.024,0.4,0.073,0.551
		c0.048,0.151,0.147,0.274,0.296,0.368c0.149,0.095,0.367,0.143,0.654,0.143v0.162h-3.875v-0.162c0.428,0,0.706-0.097,0.833-0.291
		c0.127-0.194,0.19-0.451,0.19-0.771v-6.492h-1.538c-0.261,0-0.474,0.083-0.638,0.249c-0.164,0.166-0.324,0.521-0.481,1.065h-0.173
		l0.045-1.935h0.162C189.088,182.449,189.307,182.483,189.572,182.483z"/>
	<path fill="#FFC20E" d="M196.758,189.002c0.253,0,0.468,0.089,0.643,0.269c0.175,0.179,0.263,0.392,0.263,0.637
		c0,0.243-0.088,0.453-0.263,0.632c-0.175,0.179-0.39,0.268-0.643,0.268c-0.254,0-0.468-0.089-0.643-0.268
		c-0.176-0.179-0.263-0.39-0.263-0.632c0-0.249,0.087-0.464,0.26-0.64C196.285,189.091,196.501,189.002,196.758,189.002z"/>
	<path fill="#FFC20E" d="M205.01,182.393v7.079c0,0.361,0.07,0.632,0.21,0.813c0.14,0.181,0.405,0.271,0.796,0.271v0.162h-3.813
		v-0.162c0.429,0,0.705-0.095,0.831-0.285c0.125-0.19,0.187-0.449,0.187-0.777v-3.976c0-0.227-0.022-0.404-0.064-0.532
		c-0.043-0.127-0.139-0.19-0.288-0.19c-0.156,0-0.379,0.092-0.666,0.274l-0.106-0.146l2.695-2.532H205.01z"/>
	<path fill="#FFC20E" d="M210.312,186.045c0.525,0.238,0.988,0.561,1.39,0.967c0.4,0.406,0.601,0.91,0.601,1.51
		c0,0.332-0.073,0.645-0.218,0.939c-0.146,0.295-0.35,0.546-0.615,0.755c-0.168,0.133-0.339,0.241-0.511,0.321
		c-0.174,0.08-0.397,0.145-0.671,0.196c-0.274,0.05-0.607,0.075-0.999,0.075c-0.242,0-0.495-0.012-0.76-0.039
		c-0.265-0.026-0.558-0.095-0.878-0.206c-0.321-0.112-0.594-0.297-0.821-0.557c-0.227-0.259-0.342-0.597-0.342-1.014
		c0-0.34,0.119-0.675,0.358-1.004c0.239-0.33,0.714-0.669,1.426-1.015c-0.492-0.265-0.907-0.564-1.245-0.9
		c-0.337-0.336-0.506-0.795-0.506-1.376c0-0.253,0.063-0.552,0.19-0.897c0.127-0.345,0.4-0.663,0.819-0.956
		c0.419-0.293,1.018-0.439,1.797-0.439c0.574,0,1.046,0.091,1.414,0.272c0.369,0.181,0.638,0.405,0.805,0.671
		c0.168,0.267,0.252,0.536,0.252,0.808c0,0.399-0.135,0.743-0.406,1.032C211.124,185.475,210.763,185.762,210.312,186.045z
		 M209.775,185.748c0.336-0.309,0.504-0.764,0.504-1.365c0-0.44-0.11-0.792-0.33-1.057c-0.22-0.265-0.52-0.397-0.9-0.397
		c-0.35,0-0.627,0.109-0.827,0.327c-0.202,0.218-0.302,0.469-0.302,0.752c0,0.208,0.051,0.403,0.153,0.584
		c0.103,0.18,0.29,0.366,0.562,0.556C208.906,185.34,209.286,185.539,209.775,185.748z M208.807,187.275
		c-0.495,0.368-0.744,0.833-0.744,1.392c0,0.354,0.111,0.712,0.333,1.073c0.222,0.362,0.584,0.543,1.087,0.543
		c0.25,0,0.474-0.051,0.672-0.152c0.197-0.101,0.351-0.235,0.461-0.405c0.11-0.17,0.165-0.363,0.165-0.579
		c0-0.32-0.139-0.625-0.416-0.912S209.568,187.629,208.807,187.275z"/>
	<path fill="#FFC20E" d="M218.464,182.483l-0.146,1.08h-2.706l-0.386,2.588c0.503,0.008,0.962,0.101,1.375,0.28
		c0.414,0.179,0.738,0.436,0.973,0.772c0.235,0.336,0.352,0.74,0.352,1.213c0,0.344-0.066,0.66-0.199,0.951
		c-0.132,0.291-0.319,0.543-0.559,0.757c-0.241,0.215-0.528,0.383-0.862,0.504c-0.333,0.121-0.69,0.181-1.071,0.181
		c-0.544,0-1.006-0.09-1.387-0.271c-0.38-0.181-0.742-0.412-1.084-0.691v-0.615c0.328,0.283,0.651,0.501,0.967,0.652
		c0.317,0.151,0.623,0.227,0.917,0.227c0.246,0,0.47-0.07,0.674-0.21c0.202-0.139,0.367-0.351,0.492-0.634
		c0.125-0.283,0.187-0.619,0.187-1.007c0-0.514-0.123-0.904-0.369-1.169c-0.246-0.264-0.508-0.436-0.785-0.514
		c-0.278-0.078-0.509-0.117-0.691-0.117c-0.253,0-0.542,0.036-0.867,0.107l0.615-4.082H218.464z"/>
	<path fill="#FFC20E" d="M222.843,186.045c0.525,0.238,0.988,0.561,1.389,0.967c0.4,0.406,0.601,0.91,0.601,1.51
		c0,0.332-0.073,0.645-0.218,0.939c-0.146,0.295-0.35,0.546-0.615,0.755c-0.168,0.133-0.339,0.241-0.511,0.321
		c-0.174,0.08-0.397,0.145-0.671,0.196c-0.274,0.05-0.607,0.075-0.999,0.075c-0.242,0-0.495-0.012-0.76-0.039
		c-0.265-0.026-0.558-0.095-0.878-0.206c-0.321-0.112-0.594-0.297-0.821-0.557c-0.227-0.259-0.342-0.597-0.342-1.014
		c0-0.34,0.119-0.675,0.358-1.004c0.239-0.33,0.714-0.669,1.426-1.015c-0.492-0.265-0.907-0.564-1.245-0.9
		c-0.337-0.336-0.506-0.795-0.506-1.376c0-0.253,0.063-0.552,0.19-0.897c0.127-0.345,0.4-0.663,0.82-0.956
		c0.419-0.293,1.018-0.439,1.797-0.439c0.574,0,1.046,0.091,1.415,0.272c0.369,0.181,0.638,0.405,0.805,0.671
		c0.168,0.267,0.252,0.536,0.252,0.808c0,0.399-0.135,0.743-0.406,1.032C223.654,185.475,223.294,185.762,222.843,186.045z
		 M222.305,185.748c0.336-0.309,0.504-0.764,0.504-1.365c0-0.44-0.11-0.792-0.33-1.057c-0.22-0.265-0.52-0.397-0.9-0.397
		c-0.35,0-0.627,0.109-0.827,0.327c-0.202,0.218-0.302,0.469-0.302,0.752c0,0.208,0.051,0.403,0.154,0.584
		c0.103,0.18,0.29,0.366,0.562,0.556C221.437,185.34,221.817,185.539,222.305,185.748z M221.338,187.275
		c-0.495,0.368-0.744,0.833-0.744,1.392c0,0.354,0.111,0.712,0.333,1.073c0.222,0.362,0.584,0.543,1.087,0.543
		c0.25,0,0.474-0.051,0.672-0.152c0.197-0.101,0.351-0.235,0.461-0.405c0.11-0.17,0.165-0.363,0.165-0.579
		c0-0.32-0.139-0.625-0.416-0.912C222.618,187.95,222.099,187.629,221.338,187.275z"/>
</g>
<g>
	<path fill="#FFC20E" d="M69.548,128.551l-0.509,0.675L43.261,129.1l-0.291-0.626c0.834-0.479,1.71-0.722,2.624-0.728
		c0.837-0.006,1.677,0.173,2.519,0.533L47.779,82.92l-10.696,46.147c0.189-0.002-0.665-0.126-2.563-0.373L23.603,83.098
		c-0.181,1.205-0.262,3.01-0.245,5.416c-0.027,1.571-0.021,3.795,0.021,6.672c0.04,2.877,0.063,4.655,0.068,5.336l0.094,12.712
		c-0.007,4.344,0.28,7.35,0.858,9.019c0.732,2.193,2.369,4.037,4.907,5.536l0.009,1.255l-11.372,0.162l-0.237-1.019
		c0.456-0.212,0.969-0.321,1.541-0.324c0.682-0.475,1.193-0.951,1.532-1.425c1.018-1.472,1.517-3.49,1.498-6.055
		c-0.034-4.551-0.054-12.374-0.059-23.468l-0.008-16.641c-0.499-0.362-1.204-0.592-2.119-0.691c-1.03-0.097-1.717-0.222-2.06-0.375
		l-0.008-1.021l16.06-0.118c0.955,0.36,1.909,0.536,2.862,0.53c0.418-0.003,0.799-0.032,1.142-0.087l0.97-0.164
		c0.685-0.006,1.361,1.299,2.029,3.914c0.236,0.995,0.829,3.794,1.776,8.399c0.475,2.304,0.771,3.665,0.888,4.082
		c0.527-0.842,1.232-3.468,2.115-7.877c0.808-4.041,1.263-6.901,1.366-8.578l21.717-0.159l0.011,1.492
		c-0.42-0.038-0.954-0.139-1.603-0.302c-1.103,0.322-1.862,0.694-2.278,1.116l0.12,47.404c0.19-0.001,0.38-0.003,0.571-0.004
		l0.4-0.003c0.304-0.002,0.78,0.02,1.429,0.064c0.648,0.044,1.124,0.065,1.429,0.063C69.067,128.009,69.24,128.206,69.548,128.551z"
		/>
	<path fill="#FFC20E" d="M116.186,128.485l-26.522-0.226l-0.006-0.758l6.572-0.048l-4.394-14.669l-9.716,0.071
		c-0.565,0.899-1.089,2.195-1.572,3.884c-0.483,1.689-0.72,3.086-0.712,4.192c0.016,2.214,0.562,3.882,1.638,5.006
		c1.074,1.124,2.432,1.68,4.07,1.669l0.008,1.105l-14.002,0.103l-0.008-1.107c1.406-0.379,2.946-0.867,4.619-1.46
		c0.529-0.583,1.592-3.574,3.192-8.969l3.741-12.525c0.26-0.84,0.725-2.441,1.394-4.805l2.593-9.277l2.697-9.003
		c0.743-2.468,1.42-3.705,2.03-3.709l8.173-0.06c0.581,1.201,3.733,12.813,9.459,34.834l3.352,12.868
		c0.391,1.465,0.835,2.196,1.331,2.192c0.152-0.001,0.361-0.082,0.627-0.241c0.265-0.159,0.455-0.24,0.57-0.24
		C115.663,127.31,115.951,127.701,116.186,128.485z M91.307,110.665l-4.439-14.624c-0.403,1.779-1.084,4.315-2.044,7.613
		c-1.128,3.775-1.957,6.134-2.489,7.078L91.307,110.665z"/>
	<path fill="#FFC20E" d="M170.135,128.01l-0.511,0.397l-23.664-0.22c-0.156-0.47-0.235-0.941-0.238-1.413l3.772-0.028
		c-0.277-1.308-0.437-5.001-0.482-11.082c-0.045-6.131,0.058-10.141,0.311-12.03l-0.519-0.625l-7.087,0.052
		c-0.527,0.951-0.786,2.004-0.777,3.16l0.008,1.026c0.002,0.316,0.005,0.682,0.008,1.103l0.064,8.754
		c0.003,0.368-0.034,0.605-0.109,0.709l-0.113,0.238c0.032,4.312,0.255,6.727,0.672,7.25l2.711,1.873l-0.449,1.107l-23.432,0.172
		l-0.52-0.782c0.414-0.683,1.04-1.03,1.878-1.035l0.971-0.007c0.419-0.004,0.743-0.006,0.972-0.008l-0.064-47.561l-2.404-0.454
		c-0.496,0.004-0.97,0.165-1.425,0.482l-0.012-1.65l24.347-0.178l0.009,1.178l-3.029,0.022l0.171,23.19l8.115-0.059l-0.171-23.19
		c-0.226,0.369-0.473,0.528-0.739,0.477c-0.994-0.307-1.681-0.46-2.061-0.457l-0.514,0.004l-0.006-0.864l23.946-0.176l0.01,1.335
		l-4.115,0.03l0.352,47.874c0.266-0.002,0.638,0.035,1.115,0.11c0.477,0.074,0.848,0.11,1.116,0.108
		c0.38-0.003,0.837-0.083,1.37-0.245C169.92,127.226,170.095,127.697,170.135,128.01z"/>
	<path fill="#FFC20E" d="M216.829,127.746l-26.522-0.226l-0.006-0.758l6.573-0.048l-4.395-14.669l-9.716,0.071
		c-0.565,0.9-1.089,2.196-1.571,3.885c-0.483,1.688-0.72,3.085-0.712,4.191c0.016,2.214,0.562,3.882,1.637,5.006
		c1.074,1.125,2.432,1.681,4.07,1.669l0.008,1.105l-14.002,0.103l-0.008-1.107c1.406-0.379,2.946-0.866,4.619-1.459
		c0.529-0.583,1.592-3.575,3.192-8.969l3.74-12.526c0.26-0.84,0.725-2.44,1.394-4.804l2.593-9.278l2.697-9.003
		c0.743-2.468,1.42-3.704,2.03-3.709l8.173-0.059c0.581,1.2,3.734,12.813,9.459,34.833l3.353,12.868
		c0.392,1.465,0.835,2.196,1.331,2.192c0.152-0.001,0.361-0.082,0.627-0.241c0.265-0.159,0.456-0.239,0.57-0.24
		C216.306,126.57,216.595,126.962,216.829,127.746z M191.95,109.927l-4.439-14.625c-0.403,1.779-1.084,4.316-2.044,7.613
		c-1.128,3.775-1.957,6.134-2.489,7.079L191.95,109.927z"/>
	<path fill="#FFC20E" d="M262.517,99.66c-0.767-0.466-2.001-2.641-3.706-6.521c-1.976-4.508-3.83-7.835-5.56-9.979
		c-2.884-3.556-6.212-5.32-9.984-5.292c-0.191,0.002-0.342,0.108-0.455,0.32l-0.396,0.554l0.155,21.064
		c0.191,0.104,0.401,0.208,0.63,0.311c2.895-0.021,4.867-1.45,5.913-4.289c0.785-2.101,1.55-4.203,2.297-6.305l0.118,23.896
		l-1.198,0.323c-0.794-4.239-1.787-7.165-2.98-8.782c-1.496-1.297-2.647-2.311-3.452-3.04l-1.086,0.008l-0.426,4.17l0.145,19.731
		l4.287-0.032l0.01,1.337l-25.775,0.189l-0.237-1.02c1.144-0.06,2.664-0.439,4.565-1.134l-0.347-47.166
		c-0.84-0.152-1.621-0.225-2.344-0.219c-0.763,0.006-1.429,0.089-1.999,0.25l-0.009-1.178l41.662-0.306L262.517,99.66z"/>
	<path fill="#FFC20E" d="M307.838,99.327c-0.767-0.466-2.002-2.641-3.707-6.521c-1.976-4.508-3.829-7.835-5.559-9.979
		c-2.884-3.556-6.213-5.32-9.984-5.292c-0.192,0.002-0.343,0.108-0.455,0.32l-0.396,0.554l0.155,21.064
		c0.19,0.104,0.401,0.208,0.63,0.311c2.895-0.021,4.866-1.45,5.912-4.289c0.785-2.101,1.551-4.203,2.297-6.305l0.119,23.896
		l-1.198,0.323c-0.795-4.239-1.787-7.165-2.98-8.782c-1.496-1.297-2.647-2.311-3.452-3.04l-1.086,0.008l-0.426,4.17l0.145,19.731
		l4.287-0.032l0.01,1.337l-25.776,0.189l-0.236-1.02c1.143-0.06,2.664-0.439,4.564-1.134l-0.347-47.166
		c-0.839-0.152-1.621-0.225-2.343-0.219c-0.763,0.006-1.429,0.089-2,0.25l-0.009-1.178l41.663-0.306L307.838,99.327z"/>
	<path fill="#FFC20E" d="M335.621,76.876c0.005,0.68-0.24,1.023-0.735,1.027c-0.077,0-0.112,0.237-0.109,0.708
		c-0.232-0.575-1.055-0.857-2.462-0.846l-0.571,0.24l0.115,15.644c0.013,1.835,0.034,4.508,0.059,8.019
		c0.03,4.036,0.051,6.945,0.064,8.725l-0.066,14.229c0.005,0.63,0.407,0.941,1.205,0.936c0.153-0.001,0.362-0.003,0.629-0.005
		l0.457-0.003c0.762-0.006,1.296,0.215,1.605,0.659l-0.566,0.826l-23.95-0.351l-0.005-0.678c0.721-0.406,1.387-0.612,1.997-0.617
		l1.431,0.304c0.266-0.002,0.391-1.126,0.374-3.373l-0.325-44.268c-0.226-0.103-0.451-0.154-0.675-0.153l-0.507,0.004
		c-0.487,0.004-1.011,0.008-1.574,0.012l-0.677-0.31l-0.006-0.864c0.341-0.264,0.816-0.398,1.426-0.403l1.086-0.008l17.149,0.424
		c0.876,0.046,2.055-0.145,3.539-0.577l0.974,0.386L335.621,76.876z"/>
	<path fill="#FFC20E" d="M381.366,126.537l-40.921,0.3c-0.157-0.628-0.237-1.228-0.242-1.806l3.771-0.028l-0.347-47.323
		c-0.752-0.202-1.335-0.305-1.747-0.302c-0.451,0.004-1.126,0.115-2.024,0.33l-0.013-1.728c0.458-0.108,0.8-0.242,1.028-0.401
		l40.124,0.492l0.171,23.189c-0.499-0.468-1.559-2.242-3.183-5.323c-2.126-4.019-3.919-6.994-5.382-8.923
		c-2.578-3.386-5.472-5.88-8.684-7.482l-3.372,0.024l0.17,23.112c0.496,0.26,0.86,0.387,1.088,0.385
		c2.363-0.017,4.22-1.366,5.572-4.051c1.162-2.418,1.732-5.305,1.707-8.66c0.114-0.053,0.285-0.082,0.514-0.083
		c0.19-0.002,0.361,0.024,0.515,0.075l0.191,26.02c-0.113,0.211-0.189,0.368-0.225,0.472l-0.055,0.237l-0.972,0.007
		c-0.024-3.196-0.674-6.047-1.948-8.553c-1.431-2.767-3.269-4.143-5.518-4.126c-0.267,0.002-0.494,0.135-0.683,0.396
		c0.001,0.105-0.055,0.235-0.168,0.393l0.156,21.307c0.652,0.465,1.244,0.697,1.777,0.693c3.391-0.025,6.332-1.562,8.825-4.609
		c1.246-1.523,2.891-4.51,4.935-8.965c2.044-4.454,3.633-7.312,4.766-8.574L381.366,126.537z"/>
</g>
</svg>
